<?xml version="1.0" encoding="UTF-8" standalone="no"?>
<svg
   enable-background="new 0 0 166 155.3"
   viewBox="0 0 24 24"
   version="1.1"
   id="svg18"
   sodipodi:docname="logo-solidjs.svg"
   width="24"
   height="24"
   inkscape:version="1.4.3 (0d15f75, 2025-12-25)"
   xmlns:inkscape="http://www.inkscape.org/namespaces/inkscape"
   xmlns:sodipodi="http://sodipodi.sourceforge.net/DTD/sodipodi-0.dtd"
   xmlns="http://www.w3.org/2000/svg"
   xmlns:svg="http://www.w3.org/2000/svg">
  <sodipodi:namedview
     id="namedview18"
     pagecolor="#ffffff"
     bordercolor="#000000"
     borderopacity="0.25"
     inkscape:showpageshadow="2"
     inkscape:pageopacity="0.0"
     inkscape:pagecheckerboard="0"
     inkscape:deskcolor="#d1d1d1"
     inkscape:zoom="1.788565"
     inkscape:cx="81.629684"
     inkscape:cy="84.145668"
     inkscape:window-width="1920"
     inkscape:window-height="1022"
     inkscape:window-x="1080"
     inkscape:window-y="342"
     inkscape:window-maximized="1"
     inkscape:current-layer="svg18" />
  <defs
     id="defs13">
    <linearGradient
       id="a"
       gradientUnits="userSpaceOnUse"
       x1="27.028"
       x2="151.54201"
       y1="3.451"
       y2="63.890999">
      <stop
         offset=".118"
         stop-color="#bbbdbf"
         id="stop1" />
      <stop
         offset=".299"
         stop-color="#f1f1f2"
         id="stop2" />
      <stop
         offset="1"
         stop-color="#d0d2d3"
         id="stop3" />
    </linearGradient>
    <linearGradient
       id="b"
       gradientUnits="userSpaceOnUse"
       x1="95.306999"
       x2="73.509003"
       y1="32.987999"
       y2="105.648">
      <stop
         offset="0"
         stop-color="#bbbdbf"
         id="stop4" />
      <stop
         offset=".475"
         stop-color="#929497"
         id="stop5" />
      <stop
         offset="1"
         stop-color="#58595b"
         id="stop6" />
    </linearGradient>
    <linearGradient
       id="c"
       gradientUnits="userSpaceOnUse"
       x1="17.931999"
       x2="143.767"
       y1="64.627998"
       y2="150.16901">
      <stop
         offset="0"
         stop-color="#58595b"
         id="stop7" />
      <stop
         offset=".539"
         stop-color="#929497"
         id="stop8" />
      <stop
         offset="1"
         stop-color="#58595b"
         id="stop9" />
    </linearGradient>
    <linearGradient
       id="d"
       gradientUnits="userSpaceOnUse"
       x1="74.763"
       x2="23.900999"
       y1="74.908997"
       y2="261.18399">
      <stop
         offset="0"
         stop-color="#4377bb"
         id="stop10" />
      <stop
         offset="0"
         stop-color="#808184"
         id="stop11" />
      <stop
         offset=".475"
         stop-color="#404041"
         id="stop12" />
      <stop
         offset="1"
         stop-color="#231f20"
         id="stop13" />
    </linearGradient>
  </defs>
  <g
     id="g18"
     transform="matrix(0.1509434,0,0,0.1509434,-0.5283022,0.2264148)">
    <path
       d="m 162.5,35.7 c 0,0 -52.7,-39.8 -93.6,-30.5 -1.2,0.3 -2.5,0.6 -3.6,1 -6.3,2 -11,5.5 -13.9,9.7 -0.6,0.8 -1,1.7 -1.5,2.5 l -15.1,25.7 26.1,5.1 c 10.3,7.4 24.8,10.5 37.2,7.3 l 46.5,9.1 z"
       fill="#bbbdbf"
       id="path13" />
    <path
       d="m 162.5,35.7 c 0,0 -52.7,-39.8 -93.6,-30.5 -1.2,0.3 -2.5,0.6 -3.6,1 -6.3,2 -11,5.5 -13.9,9.7 -0.6,0.8 -1,1.7 -1.5,2.5 l -15.1,25.7 26.1,5.1 c 10.3,7.4 24.8,10.5 37.2,7.3 l 46.5,9.1 z"
       fill="url(#a)"
       opacity="0.29"
       id="path14"
       style="fill:url(#a)" />
    <path
       d="m 51,35.2 c -1.2,0.3 -2.5,0.6 -3.6,1 C 30.7,41.6 25,57.2 34.6,70.9 44.2,84.6 65.5,91.4 82.2,86 L 144.6,65.8 C 144.6,65.7 91.9,25.9 51,35.2 Z"
       fill="#929497"
       id="path15" />
    <path
       d="m 51,35.2 c -1.2,0.3 -2.5,0.6 -3.6,1 C 30.7,41.6 25,57.2 34.6,70.9 44.2,84.6 65.5,91.4 82.2,86 L 144.6,65.8 C 144.6,65.7 91.9,25.9 51,35.2 Z"
       fill="url(#b)"
       opacity="0.34"
       id="path16"
       style="fill:url(#b)" />
    <path
       d="M 133.1,80.2 C 123.5,66.5 102.2,59.7 85.5,65.1 l -62.4,20.2 -19.6,35 111.6,19.1 20,-35.6 c 4,-7 3.6,-15.6 -2,-23.6 z"
       fill="url(#c)"
       id="path17"
       style="fill:url(#c)" />
    <path
       d="M 113.5,115.1 C 103.9,101.4 82.6,94.6 65.9,100 L 3.5,120.3 c 0,0 52.7,39.8 93.6,30.5 1.2,-0.3 2.5,-0.6 3.6,-1 16.7,-5.4 22.4,-21 12.8,-34.7 z"
       fill="url(#d)"
       id="path18"
       style="fill:url(#d)" />
  </g>
</svg>
