<?xml version="1.0" encoding="UTF-8" standalone="no"?>
<svg
   width="64"
   height="64"
   viewBox="0 0 64 64"
   fill="none"
   version="1.1"
   id="svg2"
   sodipodi:docname="logo-ritual.svg"
   inkscape:version="1.4.3 (0d15f75, 2025-12-25)"
   xmlns:inkscape="http://www.inkscape.org/namespaces/inkscape"
   xmlns:sodipodi="http://sodipodi.sourceforge.net/DTD/sodipodi-0.dtd"
   xmlns="http://www.w3.org/2000/svg"
   xmlns:svg="http://www.w3.org/2000/svg">
  <defs
     id="defs2" />
  <sodipodi:namedview
     id="namedview2"
     pagecolor="#ffffff"
     bordercolor="#000000"
     borderopacity="0.25"
     inkscape:showpageshadow="2"
     inkscape:pageopacity="0.0"
     inkscape:pagecheckerboard="0"
     inkscape:deskcolor="#d1d1d1"
     inkscape:zoom="5.751361"
     inkscape:cx="20.864627"
     inkscape:cy="26.602399"
     inkscape:window-width="1512"
     inkscape:window-height="921"
     inkscape:window-x="0"
     inkscape:window-y="33"
     inkscape:window-maximized="0"
     inkscape:current-layer="svg2"
     showgrid="false" />
  <g
     id="g13"
     transform="translate(0,1.9999986)">
    <ellipse
       style="fill:none;fill-opacity:0.0980392;stroke:#c0bfbc;stroke-width:3;stroke-dasharray:none;stroke-opacity:0.698039"
       id="ellipse25-0"
       cx="32"
       cy="53.152611"
       rx="18.924292"
       ry="7.3473907" />
    <ellipse
       style="fill:none;fill-opacity:0.0980392;stroke:#c0bfbc;stroke-width:3;stroke-dasharray:none;stroke-opacity:0.698039"
       id="ellipse16"
       cx="37.512516"
       cy="-0.43161714"
       rx="18.924292"
       ry="7.3473907"
       transform="rotate(75)" />
    <ellipse
       style="fill:none;fill-opacity:0.0980392;stroke:#c0bfbc;stroke-width:3;stroke-dasharray:none;stroke-opacity:0.698039"
       id="ellipse17"
       cx="-20.948086"
       cy="61.387634"
       rx="18.924292"
       ry="7.3473907"
       transform="rotate(-75)" />
  </g>
  <ellipse
     style="fill:none;fill-opacity:0.0980392;stroke:#c0bfbc;stroke-width:3;stroke-dasharray:none;stroke-opacity:0.698039"
     id="ellipse2-9-3"
     cx="46.05188"
     cy="-13.442896"
     rx="18.924292"
     ry="7.3473907"
     transform="rotate(32.509626)" />
  <ellipse
     style="fill:none;fill-opacity:0.0980392;stroke:#c0bfbc;stroke-width:3;stroke-dasharray:none;stroke-opacity:0.698039"
     id="ellipse2"
     cx="-7.9193926"
     cy="20.95335"
     rx="18.924292"
     ry="7.3473907"
     transform="matrix(-0.84330116,0.5374413,0.5374413,0.84330116,0,0)" />
  <g
     id="g5"
     transform="matrix(0.78308534,0,0,0.78308534,9.6844752,10.897965)"
     style="fill:#c0bfbc">
    <ellipse
       style="fill:#c0bfbc;fill-opacity:0.29955;stroke:none;stroke-width:5.96354;stroke-linejoin:round;stroke-dasharray:none;stroke-opacity:1;paint-order:stroke markers fill"
       id="ellipse4-5"
       cx="56.953396"
       cy="-35.64006"
       rx="3.83811"
       ry="3.8238318"
       transform="matrix(0.96338834,0.26810987,0.26209077,-0.96504323,0,0)" />
    <ellipse
       style="fill:#c0bfbc;fill-opacity:1;stroke:none;stroke-width:5.96354;stroke-linejoin:round;stroke-dasharray:none;stroke-opacity:1;paint-order:stroke markers fill"
       id="ellipse5-6"
       cx="56.952576"
       cy="-35.640282"
       rx="3.1272776"
       ry="3.115644"
       transform="matrix(0.96338834,0.26810987,0.26209077,-0.96504323,0,0)" />
  </g>
  <g
     id="g11"
     transform="matrix(1,0,0,-1,-0.20037729,65.103594)">
    <g
       id="g2"
       transform="rotate(135,55.81722,57.012395)">
      <g
         id="g4"
         transform="matrix(-2.4606174,2.4606174,-2.4606174,-2.4606174,287.28354,-22.346574)">
        <path
           style="fill:#e92063;fill-opacity:1;stroke-width:0.0103763"
           d="m 74.014653,20.358239 c 0,0 -2.742591,1.622434 -2.877972,1.556451 -0.220497,-0.107489 0.05383,-0.610907 0.05383,-0.610907 -0.650251,0.548161 -1.300501,1.096323 -1.950752,1.644484 -0.0287,0.02464 -0.05675,0.05058 -0.08399,0.07782 -0.605065,0.605066 -0.605065,1.585962 0,2.191027 0.605065,0.605065 1.585961,0.605065 2.191026,0 0.06566,-0.06566 0.175755,-0.209478 0.175755,-0.209478 l 1.82801,-2.435835 c 0,0 -0.470958,0.250084 -0.564586,-0.109137 z"
           id="path1"
           sodipodi:nodetypes="cccsssscccc" />
        <circle
           style="fill:#f3f3f3;fill-opacity:0.702703;stroke-width:0.0103763"
           cx="70.25032"
           cy="24.120285"
           r="1.1067405"
           id="circle2" />
      </g>
      <g
         id="g6"
         transform="matrix(-2.4606174,-2.4606174,2.4606174,-2.4606174,168.57548,323.37648)">
        <path
           style="fill:#e92063;fill-opacity:1;stroke-width:0.0103763"
           d="m 74.014653,20.358239 c 0,0 -2.742591,1.622434 -2.877972,1.556451 -0.220497,-0.107489 0.05383,-0.610907 0.05383,-0.610907 -0.650251,0.548161 -1.300501,1.096323 -1.950752,1.644484 -0.0287,0.02464 -0.05675,0.05058 -0.08399,0.07782 -0.605065,0.605066 -0.605065,1.585962 0,2.191027 0.605065,0.605065 1.585961,0.605065 2.191026,0 0.06566,-0.06566 0.175755,-0.209478 0.175755,-0.209478 l 1.82801,-2.435835 c 0,0 -0.470958,0.250084 -0.564586,-0.109137 z"
           id="path5"
           sodipodi:nodetypes="cccsssscccc" />
        <circle
           style="fill:#f3f3f3;fill-opacity:0.702703;stroke-width:0.0103763"
           cx="70.25032"
           cy="24.120285"
           r="1.1067405"
           id="circle5" />
      </g>
    </g>
    <g
       id="g9"
       transform="matrix(2.4606174,2.4606174,2.4606174,-2.4606174,-200.01519,-81.060744)">
      <path
         style="fill:#e92063;fill-opacity:1;stroke-width:0.0103763"
         d="m 74.014653,20.358239 c 0,0 -2.742591,1.622434 -2.877972,1.556451 -0.220497,-0.107489 0.05383,-0.610907 0.05383,-0.610907 -0.650251,0.548161 -1.300501,1.096323 -1.950752,1.644484 -0.0287,0.02464 -0.05675,0.05058 -0.08399,0.07782 -0.605065,0.605066 -0.605065,1.585962 0,2.191027 0.605065,0.605065 1.585961,0.605065 2.191026,0 0.06566,-0.06566 0.175755,-0.209478 0.175755,-0.209478 l 1.82801,-2.435835 c 0,0 -0.470958,0.250084 -0.564586,-0.109137 z"
         id="path6"
         sodipodi:nodetypes="cccsssscccc" />
      <circle
         style="fill:#f3f3f3;fill-opacity:0.702703;stroke-width:0.0103763"
         cx="70.25032"
         cy="24.120285"
         r="1.1067405"
         id="circle6" />
    </g>
    <g
       id="g8"
       transform="matrix(-1.7399192,3.0136285,3.0136285,1.7399192,81.806079,-220.73466)">
      <path
         style="fill:#e92063;fill-opacity:1;stroke-width:0.0103763"
         d="m 74.014653,20.358239 c 0,0 -2.742591,1.622434 -2.877972,1.556451 -0.220497,-0.107489 0.05383,-0.610907 0.05383,-0.610907 -0.650251,0.548161 -1.300501,1.096323 -1.950752,1.644484 -0.0287,0.02464 -0.05675,0.05058 -0.08399,0.07782 -0.605065,0.605066 -0.605065,1.585962 0,2.191027 0.605065,0.605065 1.585961,0.605065 2.191026,0 0.06566,-0.06566 0.175755,-0.209478 0.175755,-0.209478 l 1.82801,-2.435835 c 0,0 -0.470958,0.250084 -0.564586,-0.109137 z"
         id="path7"
         sodipodi:nodetypes="cccsssscccc" />
      <circle
         style="fill:#f3f3f3;fill-opacity:0.702703;stroke-width:0.0103763"
         cx="70.25032"
         cy="24.120285"
         r="1.1067405"
         id="circle7" />
    </g>
    <g
       id="g10"
       transform="matrix(3.0136286,-1.7399193,-1.7399193,-3.0136286,-137.60896,227.76429)">
      <path
         style="fill:#e92063;fill-opacity:1;stroke-width:0.0103763"
         d="m 74.014653,20.358239 c 0,0 -2.742591,1.622434 -2.877972,1.556451 -0.220497,-0.107489 0.05383,-0.610907 0.05383,-0.610907 -0.650251,0.548161 -1.300501,1.096323 -1.950752,1.644484 -0.0287,0.02464 -0.05675,0.05058 -0.08399,0.07782 -0.605065,0.605066 -0.605065,1.585962 0,2.191027 0.605065,0.605065 1.585961,0.605065 2.191026,0 0.06566,-0.06566 0.175755,-0.209478 0.175755,-0.209478 l 1.82801,-2.435835 c 0,0 -0.470958,0.250084 -0.564586,-0.109137 z"
         id="path8"
         sodipodi:nodetypes="cccsssscccc" />
      <circle
         style="fill:#f3f3f3;fill-opacity:0.702703;stroke-width:0.0103763"
         cx="70.25032"
         cy="24.120285"
         r="1.1067405"
         id="circle8" />
    </g>
  </g>
  <g
     id="g7"
     transform="matrix(0.78308534,0,0,0.78308534,-17.166809,10.983073)"
     style="fill:#c0bfbc">
    <ellipse
       style="fill:#c0bfbc;fill-opacity:0.29955;stroke:none;stroke-width:5.96354;stroke-linejoin:round;stroke-dasharray:none;stroke-opacity:1;paint-order:stroke markers fill"
       id="ellipse5"
       cx="56.953396"
       cy="-35.64006"
       rx="3.83811"
       ry="3.8238318"
       transform="matrix(0.96338834,0.26810987,0.26209077,-0.96504323,0,0)" />
    <ellipse
       style="fill:#c0bfbc;fill-opacity:1;stroke:none;stroke-width:5.96354;stroke-linejoin:round;stroke-dasharray:none;stroke-opacity:1;paint-order:stroke markers fill"
       id="ellipse6"
       cx="56.952576"
       cy="-35.640282"
       rx="3.1272776"
       ry="3.115644"
       transform="matrix(0.96338834,0.26810987,0.26209077,-0.96504323,0,0)" />
  </g>
  <g
     id="g12"
     transform="matrix(0.78308534,0,0,0.78308534,-23.650447,-14.813615)"
     style="fill:#c0bfbc">
    <ellipse
       style="fill:#c0bfbc;fill-opacity:0.29955;stroke:none;stroke-width:5.96354;stroke-linejoin:round;stroke-dasharray:none;stroke-opacity:1;paint-order:stroke markers fill"
       id="ellipse7"
       cx="56.953396"
       cy="-35.64006"
       rx="3.83811"
       ry="3.8238318"
       transform="matrix(0.96338834,0.26810987,0.26209077,-0.96504323,0,0)" />
    <ellipse
       style="fill:#c0bfbc;fill-opacity:1;stroke:none;stroke-width:5.96354;stroke-linejoin:round;stroke-dasharray:none;stroke-opacity:1;paint-order:stroke markers fill"
       id="ellipse8"
       cx="56.952576"
       cy="-35.640282"
       rx="3.1272776"
       ry="3.115644"
       transform="matrix(0.96338834,0.26810987,0.26209077,-0.96504323,0,0)" />
  </g>
  <g
     id="g14"
     transform="matrix(0.78308534,0,0,0.78308534,-3.6393917,-28.487837)"
     style="fill:#c0bfbc">
    <ellipse
       style="fill:#c0bfbc;fill-opacity:0.29955;stroke:none;stroke-width:5.96354;stroke-linejoin:round;stroke-dasharray:none;stroke-opacity:1;paint-order:stroke markers fill"
       id="ellipse12"
       cx="56.953396"
       cy="-35.64006"
       rx="3.83811"
       ry="3.8238318"
       transform="matrix(0.96338834,0.26810987,0.26209077,-0.96504323,0,0)" />
    <ellipse
       style="fill:#c0bfbc;fill-opacity:1;stroke:none;stroke-width:5.96354;stroke-linejoin:round;stroke-dasharray:none;stroke-opacity:1;paint-order:stroke markers fill"
       id="ellipse13"
       cx="56.952576"
       cy="-35.640282"
       rx="3.1272776"
       ry="3.115644"
       transform="matrix(0.96338834,0.26810987,0.26209077,-0.96504323,0,0)" />
  </g>
  <g
     id="g15"
     transform="matrix(0.78308534,0,0,0.78308534,16.408721,-14.665386)"
     style="fill:#c0bfbc">
    <ellipse
       style="fill:#c0bfbc;fill-opacity:0.29955;stroke:none;stroke-width:5.96354;stroke-linejoin:round;stroke-dasharray:none;stroke-opacity:1;paint-order:stroke markers fill"
       id="ellipse14"
       cx="56.953396"
       cy="-35.64006"
       rx="3.83811"
       ry="3.8238318"
       transform="matrix(0.96338834,0.26810987,0.26209077,-0.96504323,0,0)" />
    <ellipse
       style="fill:#c0bfbc;fill-opacity:1;stroke:none;stroke-width:5.96354;stroke-linejoin:round;stroke-dasharray:none;stroke-opacity:1;paint-order:stroke markers fill"
       id="ellipse15"
       cx="56.952576"
       cy="-35.640282"
       rx="3.1272776"
       ry="3.115644"
       transform="matrix(0.96338834,0.26810987,0.26209077,-0.96504323,0,0)" />
  </g>
</svg>
