<?xml version="1.0" encoding="UTF-8" standalone="no"?>
<svg
   width="64"
   height="64"
   viewBox="0 0 64 64"
   fill="none"
   version="1.1"
   id="svg2"
   sodipodi:docname="logo-keymap.svg"
   inkscape:version="1.4.3 (0d15f75, 2025-12-25)"
   xmlns:inkscape="http://www.inkscape.org/namespaces/inkscape"
   xmlns:sodipodi="http://sodipodi.sourceforge.net/DTD/sodipodi-0.dtd"
   xmlns="http://www.w3.org/2000/svg"
   xmlns:svg="http://www.w3.org/2000/svg">
  <defs
     id="defs2" />
  <sodipodi:namedview
     id="namedview2"
     pagecolor="#ffffff"
     bordercolor="#000000"
     borderopacity="0.25"
     inkscape:showpageshadow="2"
     inkscape:pageopacity="0.0"
     inkscape:pagecheckerboard="0"
     inkscape:deskcolor="#d1d1d1"
     inkscape:zoom="4.0134041"
     inkscape:cx="25.165669"
     inkscape:cy="34.633941"
     inkscape:window-width="1512"
     inkscape:window-height="921"
     inkscape:window-x="0"
     inkscape:window-y="33"
     inkscape:window-maximized="1"
     inkscape:current-layer="svg2"
     showgrid="false" />
  <g
     id="g4"
     transform="translate(0.035659,-2.2701073)">
    <ellipse
       style="fill:none;fill-opacity:0.0980392;stroke:#c0bfbc;stroke-width:3;stroke-dasharray:none;stroke-opacity:0.698039"
       id="ellipse7"
       cx="-44.407444"
       cy="-26.033651"
       rx="16.582996"
       ry="6.4383779"
       transform="matrix(0,-1,-1,0,0,0)" />
    <ellipse
       style="fill:none;fill-opacity:0.0980392;stroke:#c0bfbc;stroke-width:3;stroke-dasharray:none;stroke-opacity:0.698039"
       id="ellipse4"
       cx="-24.132771"
       cy="-26.033651"
       rx="16.582996"
       ry="6.4383779"
       transform="matrix(0,-1,-1,0,0,0)" />
    <g
       id="g9"
       transform="matrix(0.55372495,-0.55372495,-0.55372495,-0.55372495,21.85601,75.058925)"
       style="fill:#c0bfbc">
      <path
         id="path9"
         style="fill:#c0bfbc;fill-opacity:1;stroke:none;stroke-width:2.554;stroke-linejoin:round;stroke-dasharray:none;stroke-opacity:1;paint-order:stroke markers fill"
         d="m 43.273314,44.104829 a 3.2041031,3.1808923 44.95377 0 0 -3.090241,2.334515 3.2041031,3.1808923 44.95377 0 0 2.247221,3.933261 3.2041031,3.1808923 44.95377 0 0 0.835537,0.117223 h 0.02494 l 3.167559,10e-7 -10e-7,-3.1925 a 3.2041031,3.1808923 44.95377 0 0 -2.356961,-3.075276 3.2041031,3.1808923 44.95377 0 0 -0.828054,-0.117224 z" />
    </g>
    <g
       id="g10"
       transform="matrix(-0.55372495,0.55372495,0.55372495,0.55372495,30.072672,-4.3789666)"
       style="fill:#c0bfbc">
      <path
         id="path10"
         style="fill:#c0bfbc;fill-opacity:1;stroke:none;stroke-width:2.554;stroke-linejoin:round;stroke-dasharray:none;stroke-opacity:1;paint-order:stroke markers fill"
         d="m 43.273314,44.104829 a 3.2041031,3.1808923 44.95377 0 0 -3.090241,2.334515 3.2041031,3.1808923 44.95377 0 0 2.247221,3.933261 3.2041031,3.1808923 44.95377 0 0 0.835537,0.117223 h 0.02494 l 3.167559,10e-7 -10e-7,-3.1925 a 3.2041031,3.1808923 44.95377 0 0 -2.356961,-3.075276 3.2041031,3.1808923 44.95377 0 0 -0.828054,-0.117224 z" />
    </g>
  </g>
  <g
     id="g3"
     transform="translate(0,-0.82540366)">
    <g
       id="g1"
       transform="matrix(-0.70710678,0.70710678,0.70710678,0.70710678,58.410228,1.2602407)">
      <ellipse
         style="fill:none;fill-opacity:0.0980392;stroke:#c0bfbc;stroke-width:3;stroke-dasharray:none;stroke-opacity:0.698039"
         id="ellipse3-7"
         cx="26.033651"
         cy="-6.0847464"
         rx="16.582996"
         ry="6.4383779"
         transform="scale(1,-1)" />
      <path
         id="path11"
         style="fill:#c0bfbc;fill-opacity:1;stroke:none;stroke-width:2;stroke-linejoin:round;stroke-dasharray:none;stroke-opacity:1;paint-order:stroke markers fill"
         d="M 15.951401,9.5474049 A 2.5090861,2.4909101 30.04623 0 1 14.81189,12.358024 2.5090861,2.4909101 30.04623 0 1 11.381301,11.455403 2.5090861,2.4909101 30.04623 0 1 11.123289,10.84716 l -0.0051,-0.01886 -0.641993,-2.3959491 2.414815,-0.647047 a 2.5090861,2.4909101 30.04623 0 1 2.803848,1.159522 2.5090861,2.4909101 30.04623 0 1 0.256497,0.602584 z" />
    </g>
    <g
       id="g2"
       transform="rotate(-135,42.540837,20.098129)">
      <ellipse
         style="fill:none;fill-opacity:0.0980392;stroke:#c0bfbc;stroke-width:3;stroke-dasharray:none;stroke-opacity:0.698039"
         id="ellipse1"
         cx="26.033651"
         cy="-6.0847464"
         rx="16.582996"
         ry="6.4383779"
         transform="scale(1,-1)" />
      <path
         id="path1"
         style="fill:#c0bfbc;fill-opacity:1;stroke:none;stroke-width:2;stroke-linejoin:round;stroke-dasharray:none;stroke-opacity:1;paint-order:stroke markers fill"
         d="M 15.951401,9.5474049 A 2.5090861,2.4909101 30.04623 0 1 14.81189,12.358024 2.5090861,2.4909101 30.04623 0 1 11.381301,11.455403 2.5090861,2.4909101 30.04623 0 1 11.123289,10.84716 l -0.0051,-0.01886 -0.641993,-2.3959491 2.414815,-0.647047 a 2.5090861,2.4909101 30.04623 0 1 2.803848,1.159522 2.5090861,2.4909101 30.04623 0 1 0.256497,0.602584 z" />
    </g>
  </g>
  <g
     id="g6"
     transform="translate(0,-0.169805)">
    <g
       id="g8"
       transform="matrix(3.4798385,0,0,-3.4798385,-208.99515,116.16714)">
      <path
         style="fill:#e92063;fill-opacity:1;stroke-width:0.0103763"
         d="m 74.014653,20.358239 c 0,0 -2.742591,1.622434 -2.877972,1.556451 -0.220497,-0.107489 0.05383,-0.610907 0.05383,-0.610907 -0.650251,0.548161 -1.300501,1.096323 -1.950752,1.644484 -0.0287,0.02464 -0.05675,0.05058 -0.08399,0.07782 -0.605065,0.605066 -0.605065,1.585962 0,2.191027 0.605065,0.605065 1.585961,0.605065 2.191026,0 0.06566,-0.06566 0.175755,-0.209478 0.175755,-0.209478 l 1.82801,-2.435835 c 0,0 -0.470958,0.250084 -0.564586,-0.109137 z"
         id="path7"
         sodipodi:nodetypes="cccsssscccc" />
      <circle
         style="fill:#f3f3f3;fill-opacity:0.702703;stroke-width:0.0103763"
         cx="70.25032"
         cy="24.120285"
         r="1.1067405"
         id="circle7" />
    </g>
    <g
       id="g5"
       transform="matrix(3.4798385,0,0,3.4798385,-208.99515,-51.82753)">
      <path
         style="fill:#e92063;fill-opacity:1;stroke-width:0.0103763"
         d="m 74.014653,20.358239 c 0,0 -2.742591,1.622434 -2.877972,1.556451 -0.220497,-0.107489 0.05383,-0.610907 0.05383,-0.610907 -0.650251,0.548161 -1.300501,1.096323 -1.950752,1.644484 -0.0287,0.02464 -0.05675,0.05058 -0.08399,0.07782 -0.605065,0.605066 -0.605065,1.585962 0,2.191027 0.605065,0.605065 1.585961,0.605065 2.191026,0 0.06566,-0.06566 0.175755,-0.209478 0.175755,-0.209478 l 1.82801,-2.435835 c 0,0 -0.470958,0.250084 -0.564586,-0.109137 z"
         id="path4"
         sodipodi:nodetypes="cccsssscccc" />
      <circle
         style="fill:#f3f3f3;fill-opacity:0.702703;stroke-width:0.0103763"
         cx="70.25032"
         cy="24.120285"
         r="1.1067405"
         id="circle4" />
    </g>
  </g>
</svg>
