<?xml version="1.0" encoding="UTF-8" standalone="no"?>
<svg
   width="64"
   height="64"
   viewBox="0 0 64 64"
   fill="none"
   version="1.1"
   id="svg2"
   sodipodi:docname="logo-prism.svg"
   inkscape:version="1.4.3 (0d15f75, 2025-12-25)"
   xml:space="preserve"
   xmlns:inkscape="http://www.inkscape.org/namespaces/inkscape"
   xmlns:sodipodi="http://sodipodi.sourceforge.net/DTD/sodipodi-0.dtd"
   xmlns="http://www.w3.org/2000/svg"
   xmlns:svg="http://www.w3.org/2000/svg"><defs
     id="defs2" /><sodipodi:namedview
     id="namedview2"
     pagecolor="#ffffff"
     bordercolor="#000000"
     borderopacity="0.25"
     inkscape:showpageshadow="2"
     inkscape:pageopacity="0.0"
     inkscape:pagecheckerboard="0"
     inkscape:deskcolor="#d1d1d1"
     inkscape:zoom="6.5665534"
     inkscape:cx="61.752334"
     inkscape:cy="35.863563"
     inkscape:window-width="1920"
     inkscape:window-height="1022"
     inkscape:window-x="1080"
     inkscape:window-y="342"
     inkscape:window-maximized="1"
     inkscape:current-layer="svg2"
     showgrid="false"
     showguides="false" /><g
     id="g12"
     transform="translate(86.297419,66.655123)"><ellipse
       style="fill:none;fill-opacity:0.0980392;stroke:#c0bfbc;stroke-width:3;stroke-dasharray:none;stroke-opacity:0.698039"
       id="ellipse1"
       cx="29.370085"
       cy="-47.400764"
       rx="21.707518"
       ry="8.4279823"
       transform="scale(1,-1)" /><ellipse
       style="fill:none;fill-opacity:0.0980392;stroke:#c0bfbc;stroke-width:3;stroke-dasharray:none;stroke-opacity:0.698039"
       id="ellipse7"
       cx="-47.069244"
       cy="16.399485"
       rx="21.707518"
       ry="8.4279823"
       transform="rotate(-120)" /><g
       id="g27"
       transform="matrix(-3.3612659,0.90064848,0.90064848,3.3612659,232.16906,-113.60915)"><path
         style="fill:#e92063;fill-opacity:1;stroke-width:0.0103763"
         d="m 74.014653,20.358239 c 0,0 -2.742591,1.622434 -2.877972,1.556451 -0.220497,-0.107489 0.05383,-0.610907 0.05383,-0.610907 -0.650251,0.548161 -1.300501,1.096323 -1.950752,1.644484 -0.0287,0.02464 -0.05675,0.05058 -0.08399,0.07782 -0.605065,0.605066 -0.605065,1.585962 0,2.191027 0.605065,0.605065 1.585961,0.605065 2.191026,0 0.06566,-0.06566 0.175755,-0.209478 0.175755,-0.209478 l 1.82801,-2.435835 c 0,0 -0.470958,0.250084 -0.564586,-0.109137 z"
         id="path27"
         sodipodi:nodetypes="cccsssscccc" /><circle
         style="fill:#f3f3f3;fill-opacity:0.702703;stroke-width:0.0103763"
         cx="70.25032"
         cy="24.120285"
         r="1.1067405"
         id="circle27" /></g><ellipse
       style="fill:none;fill-opacity:0.0980392;stroke:#c0bfbc;stroke-width:3;stroke-dasharray:none;stroke-opacity:0.698039"
       id="ellipse2"
       cx="-17.699163"
       cy="-34.470997"
       rx="21.707518"
       ry="8.4279823"
       transform="matrix(0.5,-0.8660254,-0.8660254,-0.5,0,0)" /><g
       id="g18"
       transform="rotate(-60,39.234522,53.859463)"
       style="opacity:0.849576;fill:#ffa50a;fill-opacity:1"><ellipse
         style="fill:#ffa50a;fill-opacity:0.29955;stroke:none;stroke-width:3;stroke-linejoin:round;stroke-dasharray:none;stroke-opacity:1;paint-order:stroke markers fill"
         id="ellipse17"
         cx="17.38196"
         cy="33.16288"
         rx="1.9409472"
         ry="1.9135387"
         transform="matrix(-0.26508582,0.96422482,0.96422482,0.26508582,0,0)" /><ellipse
         style="fill:#ffa50a;fill-opacity:1;stroke:none;stroke-width:3;stroke-linejoin:round;stroke-dasharray:none;stroke-opacity:1;paint-order:stroke markers fill"
         id="ellipse18"
         cx="17.38196"
         cy="33.162884"
         rx="1.5814766"
         ry="1.5591443"
         transform="matrix(-0.26508582,0.96422482,0.96422482,0.26508582,0,0)" /></g><g
       id="g22"
       transform="rotate(-60,59.966627,18.664348)"
       style="opacity:0.849576;fill:#ffa50a;fill-opacity:1"><ellipse
         style="fill:#ffa50a;fill-opacity:0.29955;stroke:none;stroke-width:3;stroke-linejoin:round;stroke-dasharray:none;stroke-opacity:1;paint-order:stroke markers fill"
         id="ellipse21"
         cx="17.38196"
         cy="33.16288"
         rx="1.9409472"
         ry="1.9135387"
         transform="matrix(-0.26508582,0.96422482,0.96422482,0.26508582,0,0)" /><ellipse
         style="fill:#ffa50a;fill-opacity:1;stroke:none;stroke-width:3;stroke-linejoin:round;stroke-dasharray:none;stroke-opacity:1;paint-order:stroke markers fill"
         id="ellipse22"
         cx="17.38196"
         cy="33.162884"
         rx="1.5814766"
         ry="1.5591443"
         transform="matrix(-0.26508582,0.96422482,0.96422482,0.26508582,0,0)" /></g><g
       id="g24"
       transform="rotate(-60,17.929661,17.790527)"
       style="opacity:0.849576;fill:#ffa50a;fill-opacity:1"><ellipse
         style="fill:#ffa50a;fill-opacity:0.29955;stroke:none;stroke-width:3;stroke-linejoin:round;stroke-dasharray:none;stroke-opacity:1;paint-order:stroke markers fill"
         id="ellipse23"
         cx="17.38196"
         cy="33.16288"
         rx="1.9409472"
         ry="1.9135387"
         transform="matrix(-0.26508582,0.96422482,0.96422482,0.26508582,0,0)" /><ellipse
         style="fill:#ffa50a;fill-opacity:1;stroke:none;stroke-width:3;stroke-linejoin:round;stroke-dasharray:none;stroke-opacity:1;paint-order:stroke markers fill"
         id="ellipse24"
         cx="17.38196"
         cy="33.162884"
         rx="1.5814766"
         ry="1.5591443"
         transform="matrix(-0.26508582,0.96422482,0.96422482,0.26508582,0,0)" /></g><g
       id="g7"
       transform="matrix(-3.3612658,-0.90064839,0.90064839,-3.3612658,264.85749,169.28834)"><path
         style="fill:#e92063;fill-opacity:1;stroke-width:0.0103763"
         d="m 74.014653,20.358239 c 0,0 -2.742591,1.622434 -2.877972,1.556451 -0.220497,-0.107489 0.05383,-0.610907 0.05383,-0.610907 -0.650251,0.548161 -1.300501,1.096323 -1.950752,1.644484 -0.0287,0.02464 -0.05675,0.05058 -0.08399,0.07782 -0.605065,0.605066 -0.605065,1.585962 0,2.191027 0.605065,0.605065 1.585961,0.605065 2.191026,0 0.06566,-0.06566 0.175755,-0.209478 0.175755,-0.209478 l 1.82801,-2.435835 c 0,0 -0.470958,0.250084 -0.564586,-0.109137 z"
         id="path7"
         sodipodi:nodetypes="cccsssscccc" /><circle
         style="fill:#f3f3f3;fill-opacity:0.702703;stroke-width:0.0103763"
         cx="70.25032"
         cy="24.120285"
         r="1.1067405"
         id="circle7" /></g><g
       id="g8"
       transform="matrix(-3.3612659,0.90064849,-0.90064849,-3.3612659,300.17079,28.653377)"><path
         style="fill:#e92063;fill-opacity:1;stroke-width:0.0103763"
         d="m 74.014653,20.358239 c 0,0 -2.742591,1.622434 -2.877972,1.556451 -0.220497,-0.107489 0.05383,-0.610907 0.05383,-0.610907 -0.650251,0.548161 -1.300501,1.096323 -1.950752,1.644484 -0.0287,0.02464 -0.05675,0.05058 -0.08399,0.07782 -0.605065,0.605066 -0.605065,1.585962 0,2.191027 0.605065,0.605065 1.585961,0.605065 2.191026,0 0.06566,-0.06566 0.175755,-0.209478 0.175755,-0.209478 l 1.82801,-2.435835 c 0,0 -0.470958,0.250084 -0.564586,-0.109137 z"
         id="path8"
         sodipodi:nodetypes="cccsssscccc" /><circle
         style="fill:#f3f3f3;fill-opacity:0.702703;stroke-width:0.0103763"
         cx="70.25032"
         cy="24.120285"
         r="1.1067405"
         id="circle8" /></g><g
       id="g9"
       transform="matrix(-2.4606174,2.4606174,2.4606174,2.4606174,172.09204,-193.18553)"><path
         style="fill:#e92063;fill-opacity:1;stroke-width:0.0103763"
         d="m 74.014653,20.358239 c 0,0 -2.742591,1.622434 -2.877972,1.556451 -0.220497,-0.107489 0.05383,-0.610907 0.05383,-0.610907 -0.650251,0.548161 -1.300501,1.096323 -1.950752,1.644484 -0.0287,0.02464 -0.05675,0.05058 -0.08399,0.07782 -0.605065,0.605066 -0.605065,1.585962 0,2.191027 0.605065,0.605065 1.585961,0.605065 2.191026,0 0.06566,-0.06566 0.175755,-0.209478 0.175755,-0.209478 l 1.82801,-2.435835 c 0,0 -0.470958,0.250084 -0.564586,-0.109137 z"
         id="path9"
         sodipodi:nodetypes="cccsssscccc" /><circle
         style="fill:#f3f3f3;fill-opacity:0.702703;stroke-width:0.0103763"
         cx="70.25032"
         cy="24.120285"
         r="1.1067405"
         id="circle9" /></g></g><path
     style="fill:#e92063;fill-opacity:1;stroke-width:0.0361078"
     d="m 5.78816,32.773874 c 0,0 10.740656,2.756278 10.911418,3.251758 0.27807,0.807048 -1.635663,1.370753 -1.635663,1.370753 2.948833,0.251204 5.897667,0.502404 8.8465,0.753608 0.131249,0.01 0.264098,0.01518 0.398153,0.01518 2.977669,-2e-6 5.391279,-2.413612 5.391278,-5.391279 0,-2.977667 -2.413609,-5.391277 -5.391276,-5.391277 -0.323129,0 -0.947911,0.08298 -0.947911,0.08298 l -10.491691,1.495627 c 0,0 1.774208,0.543486 1.120686,1.657774 z"
     id="path6"
     sodipodi:nodetypes="cccsssscccc" /><circle
     style="fill:#f3f3f3;fill-opacity:0.702703;stroke-width:0.0361078"
     cx="-40.366745"
     cy="-5.9904695"
     r="3.8512781"
     id="circle6"
     transform="rotate(-135)" /><ellipse
     style="fill:none;fill-opacity:0.0980392;stroke:#c0bfbc;stroke-width:3;stroke-dasharray:none;stroke-opacity:0.698039"
     id="ellipse3"
     cx="-32.210476"
     cy="-33.13496"
     rx="29.931705"
     ry="11.621037"
     transform="matrix(0,-1,-1,0,0,0)" /><g
     id="g10"
     transform="rotate(-60,10.103052,8.9245329)"
     style="opacity:0.849576;fill:#ffa50a;fill-opacity:1"><ellipse
       style="fill:#ffa50a;fill-opacity:0.29955;stroke:none;stroke-width:3;stroke-linejoin:round;stroke-dasharray:none;stroke-opacity:1;paint-order:stroke markers fill"
       id="ellipse6"
       cx="17.38196"
       cy="33.16288"
       rx="1.9409472"
       ry="1.9135387"
       transform="matrix(-0.26508582,0.96422482,0.96422482,0.26508582,0,0)" /><ellipse
       style="fill:#ffa50a;fill-opacity:1;stroke:none;stroke-width:3;stroke-linejoin:round;stroke-dasharray:none;stroke-opacity:1;paint-order:stroke markers fill"
       id="ellipse8"
       cx="17.38196"
       cy="33.162884"
       rx="1.5814766"
       ry="1.5591443"
       transform="matrix(-0.26508582,0.96422482,0.96422482,0.26508582,0,0)" /></g><g
     id="g3"
     transform="matrix(-2.4606174,-2.4606173,2.4606173,-2.4606174,166.32806,264.98945)"><path
       style="fill:#e92063;fill-opacity:1;stroke-width:0.0103763"
       d="m 74.014653,20.358239 c 0,0 -2.742591,1.622434 -2.877972,1.556451 -0.220497,-0.107489 0.05383,-0.610907 0.05383,-0.610907 -0.650251,0.548161 -1.300501,1.096323 -1.950752,1.644484 -0.0287,0.02464 -0.05675,0.05058 -0.08399,0.07782 -0.605065,0.605066 -0.605065,1.585962 0,2.191027 0.605065,0.605065 1.585961,0.605065 2.191026,0 0.06566,-0.06566 0.175755,-0.209478 0.175755,-0.209478 l 1.82801,-2.435835 c 0,0 -0.470958,0.250084 -0.564586,-0.109137 z"
       id="path3"
       sodipodi:nodetypes="cccsssscccc" /><circle
       style="fill:#f3f3f3;fill-opacity:0.702703;stroke-width:0.0103763"
       cx="70.25032"
       cy="24.120285"
       r="1.1067405"
       id="circle3" /></g><g
     id="g4"
     transform="matrix(-3.3612659,-0.90064848,0.90064848,-3.3612659,267.22776,160.85265)"><path
       style="fill:#e92063;fill-opacity:1;stroke-width:0.0103763"
       d="m 74.014653,20.358239 c 0,0 -2.742591,1.622434 -2.877972,1.556451 -0.220497,-0.107489 0.05383,-0.610907 0.05383,-0.610907 -0.650251,0.548161 -1.300501,1.096323 -1.950752,1.644484 -0.0287,0.02464 -0.05675,0.05058 -0.08399,0.07782 -0.605065,0.605066 -0.605065,1.585962 0,2.191027 0.605065,0.605065 1.585961,0.605065 2.191026,0 0.06566,-0.06566 0.175755,-0.209478 0.175755,-0.209478 l 1.82801,-2.435835 c 0,0 -0.470958,0.250084 -0.564586,-0.109137 z"
       id="path4"
       sodipodi:nodetypes="cccsssscccc" /><circle
       style="fill:#f3f3f3;fill-opacity:0.702703;stroke-width:0.0103763"
       cx="70.25032"
       cy="24.120285"
       r="1.1067405"
       id="circle4" /></g><g
     id="g5"
     transform="matrix(-3.3612659,0.90064848,0.90064848,3.3612659,267.22776,-95.304864)"><path
       style="fill:#e92063;fill-opacity:1;stroke-width:0.0103763"
       d="m 74.014653,20.358239 c 0,0 -2.742591,1.622434 -2.877972,1.556451 -0.220497,-0.107489 0.05383,-0.610907 0.05383,-0.610907 -0.650251,0.548161 -1.300501,1.096323 -1.950752,1.644484 -0.0287,0.02464 -0.05675,0.05058 -0.08399,0.07782 -0.605065,0.605066 -0.605065,1.585962 0,2.191027 0.605065,0.605065 1.585961,0.605065 2.191026,0 0.06566,-0.06566 0.175755,-0.209478 0.175755,-0.209478 l 1.82801,-2.435835 c 0,0 -0.470958,0.250084 -0.564586,-0.109137 z"
       id="path5"
       sodipodi:nodetypes="cccsssscccc" /><circle
       style="fill:#f3f3f3;fill-opacity:0.702703;stroke-width:0.0103763"
       cx="70.25032"
       cy="24.120285"
       r="1.1067405"
       id="circle5" /></g></svg>
