<?xml version="1.0" encoding="UTF-8" standalone="no"?>
<svg
   width="64"
   height="64"
   viewBox="0 0 64 64"
   fill="none"
   version="1.1"
   id="svg2"
   sodipodi:docname="logo-ledger.svg"
   inkscape:version="1.4.3 (0d15f75, 2025-12-25)"
   xmlns:inkscape="http://www.inkscape.org/namespaces/inkscape"
   xmlns:sodipodi="http://sodipodi.sourceforge.net/DTD/sodipodi-0.dtd"
   xmlns="http://www.w3.org/2000/svg"
   xmlns:svg="http://www.w3.org/2000/svg">
  <defs
     id="defs2" />
  <sodipodi:namedview
     id="namedview2"
     pagecolor="#ffffff"
     bordercolor="#000000"
     borderopacity="0.25"
     inkscape:showpageshadow="2"
     inkscape:pageopacity="0.0"
     inkscape:pagecheckerboard="0"
     inkscape:deskcolor="#d1d1d1"
     inkscape:zoom="9.174885"
     inkscape:cx="24.414475"
     inkscape:cy="26.812325"
     inkscape:window-width="1512"
     inkscape:window-height="921"
     inkscape:window-x="0"
     inkscape:window-y="33"
     inkscape:window-maximized="1"
     inkscape:current-layer="svg2"
     showgrid="false" />
  <g
     id="g1"
     transform="matrix(0.66764988,0,0,0.66764988,10.181535,20.965071)"
     style="stroke-width:4.49337;stroke-dasharray:none">
    <ellipse
       style="fill:none;fill-opacity:0.0980392;stroke:#c0bfbc;stroke-width:4.49337;stroke-dasharray:none;stroke-opacity:0.698039"
       id="ellipse25"
       cx="19.429382"
       cy="-38.748631"
       rx="22.196796"
       ry="8.6179466"
       transform="rotate(120)" />
    <ellipse
       style="fill:none;fill-opacity:0.0980392;stroke:#c0bfbc;stroke-width:4.49337;stroke-dasharray:none;stroke-opacity:0.698039"
       id="ellipse2"
       cx="-32.699566"
       cy="-52.165012"
       rx="22.196796"
       ry="8.6179466"
       transform="scale(-1)" />
    <ellipse
       style="fill:none;fill-opacity:0.0980392;stroke:#c0bfbc;stroke-width:4.49337;stroke-dasharray:none;stroke-opacity:0.698039"
       id="ellipse3"
       cx="52.090874"
       cy="-17.822742"
       rx="22.196796"
       ry="8.6179466"
       transform="rotate(60)" />
  </g>
  <ellipse
     style="fill:none;fill-opacity:0.0980392;stroke:#c0bfbc;stroke-width:3;stroke-dasharray:none;stroke-opacity:0.698039"
     id="ellipse1"
     cx="-29.388084"
     cy="-13.170522"
     rx="14.819689"
     ry="5.7537708"
     transform="matrix(-0.5,-0.8660254,-0.8660254,0.5,0,0)" />
  <ellipse
     style="fill:none;fill-opacity:0.0980392;stroke:#c0bfbc;stroke-width:3;stroke-dasharray:none;stroke-opacity:0.698039"
     id="ellipse6"
     cx="2.5998905"
     cy="-42.234283"
     rx="14.819689"
     ry="5.7537708"
     transform="matrix(0.5,-0.8660254,-0.8660254,-0.5,0,0)" />
  <path
     id="path11"
     style="fill:#c0bfbc;fill-opacity:1;stroke:none;stroke-width:2;stroke-linejoin:round;stroke-dasharray:none;stroke-opacity:1;paint-order:stroke markers fill"
     d="m 46.524957,19.515323 a 2.4909101,2.5090861 15.04623 0 1 -3.009777,-0.373241 2.4909101,2.5090861 15.04623 0 1 -0.01604,-3.54731 2.4909101,2.5090861 15.04623 0 1 0.520739,-0.406646 l 0.0169,-0.0098 2.148149,-1.240235 1.25,2.165064 a 2.4909101,2.5090861 15.04623 0 1 -0.394323,3.008416 2.4909101,2.5090861 15.04623 0 1 -0.515665,0.403717 z" />
  <path
     id="path8"
     style="fill:#c0bfbc;fill-opacity:1;stroke:none;stroke-width:2;stroke-linejoin:round;stroke-dasharray:none;stroke-opacity:1;paint-order:stroke markers fill"
     d="m 19.969381,14.284509 a 2.5090861,2.4909101 74.95377 0 0 -3.009777,0.373241 2.5090861,2.4909101 74.95377 0 0 -0.01604,3.54731 2.5090861,2.4909101 74.95377 0 0 0.520739,0.406646 l 0.0169,0.0098 2.148149,1.240235 1.25,-2.165064 a 2.5090861,2.4909101 74.95377 0 0 -0.394323,-3.008416 2.5090861,2.4909101 74.95377 0 0 -0.515665,-0.403717 z" />
  <path
     id="path12"
     style="fill:#c0bfbc;fill-opacity:1;stroke:none;stroke-width:2;stroke-linejoin:round;stroke-dasharray:none;stroke-opacity:1;paint-order:stroke markers fill"
     d="m 29.723591,4.263522 a 2.5090861,2.4909101 0.04623 0 1 -0.418464,-3.0038232 2.5090861,2.4909101 0.04623 0 1 3.422287,-0.93360495 2.5090861,2.4909101 0.04623 0 1 0.527567,0.3977476 l 0.01384,0.013788 1.753957,1.75395615 -1.767768,1.7677671 A 2.5090861,2.4909101 0.04623 0 1 30.247045,4.657101 2.5090861,2.4909101 0.04623 0 1 29.723621,4.2634965 Z" />
  <g
     id="g15"
     transform="translate(0,0.16366217)">
    <path
       id="path13"
       style="fill:#c0bfbc;fill-opacity:1;stroke:none;stroke-width:2;stroke-linejoin:round;stroke-dasharray:none;stroke-opacity:1;paint-order:stroke markers fill"
       d="m 17.458405,44.321015 a 2.4909101,2.5090861 15.04623 0 1 3.009777,0.373241 2.4909101,2.5090861 15.04623 0 1 0.01604,3.54731 2.4909101,2.5090861 15.04623 0 1 -0.520739,0.406646 l -0.0169,0.0098 -2.148149,1.240235 -1.25,-2.165064 a 2.4909101,2.5090861 15.04623 0 1 0.394323,-3.008416 2.4909101,2.5090861 15.04623 0 1 0.515665,-0.403717 z" />
    <path
       id="path14"
       style="fill:#c0bfbc;fill-opacity:1;stroke:none;stroke-width:2;stroke-linejoin:round;stroke-dasharray:none;stroke-opacity:1;paint-order:stroke markers fill"
       d="m 44.013981,49.551829 a 2.5090861,2.4909101 74.95377 0 0 3.009777,-0.373241 2.5090861,2.4909101 74.95377 0 0 0.01604,-3.54731 2.5090861,2.4909101 74.95377 0 0 -0.520739,-0.406646 l -0.0169,-0.0098 -2.148149,-1.240235 -1.25,2.165064 a 2.5090861,2.4909101 74.95377 0 0 0.394323,3.008416 2.5090861,2.4909101 74.95377 0 0 0.515665,0.403717 z" />
    <path
       id="path15"
       style="fill:#c0bfbc;fill-opacity:1;stroke:none;stroke-width:2;stroke-linejoin:round;stroke-dasharray:none;stroke-opacity:1;paint-order:stroke markers fill"
       d="m 34.259771,59.572816 a 2.5090861,2.4909101 0.04623 0 1 0.418464,3.003823 2.5090861,2.4909101 0.04623 0 1 -3.422287,0.933605 2.5090861,2.4909101 0.04623 0 1 -0.527567,-0.397748 l -0.01384,-0.01379 -1.753957,-1.753956 1.767768,-1.767767 a 2.5090861,2.4909101 0.04623 0 1 3.007965,-0.397748 2.5090861,2.4909101 0.04623 0 1 0.523424,0.393604 z" />
  </g>
  <g
     id="g16"
     transform="matrix(2.4606174,-2.4606173,2.4606173,2.4606174,-200.21555,141.56843)">
    <path
       style="fill:#e92063;fill-opacity:1;stroke-width:0.0103763"
       d="m 74.014653,20.358239 c 0,0 -2.742591,1.622434 -2.877972,1.556451 -0.220497,-0.107489 0.05383,-0.610907 0.05383,-0.610907 -0.650251,0.548161 -1.300501,1.096323 -1.950752,1.644484 -0.0287,0.02464 -0.05675,0.05058 -0.08399,0.07782 -0.605065,0.605066 -0.605065,1.585962 0,2.191027 0.605065,0.605065 1.585961,0.605065 2.191026,0 0.06566,-0.06566 0.175755,-0.209478 0.175755,-0.209478 l 1.82801,-2.435835 c 0,0 -0.470958,0.250084 -0.564586,-0.109137 z"
       id="path16"
       sodipodi:nodetypes="cccsssscccc" />
    <circle
       style="fill:#f3f3f3;fill-opacity:0.702703;stroke-width:0.0103763"
       cx="70.25032"
       cy="24.120285"
       r="1.1067405"
       id="circle16" />
  </g>
  <ellipse
     style="fill:none;fill-opacity:0.0980392;stroke:#c0bfbc;stroke-width:3;stroke-dasharray:none;stroke-opacity:0.698039"
     id="ellipse5"
     cx="-32.013397"
     cy="8.2069654"
     rx="14.819689"
     ry="5.7537708"
     transform="scale(-1,1)" />
</svg>
