<?xml version="1.0" encoding="UTF-8" standalone="no"?>
<svg
   width="64"
   height="64"
   viewBox="0 0 64 64"
   fill="none"
   version="1.1"
   id="svg2"
   sodipodi:docname="logo-coins.svg"
   inkscape:version="1.4.3 (0d15f75, 2025-12-25)"
   xmlns:inkscape="http://www.inkscape.org/namespaces/inkscape"
   xmlns:sodipodi="http://sodipodi.sourceforge.net/DTD/sodipodi-0.dtd"
   xmlns="http://www.w3.org/2000/svg"
   xmlns:svg="http://www.w3.org/2000/svg">
  <defs
     id="defs2" />
  <sodipodi:namedview
     id="namedview2"
     pagecolor="#ffffff"
     bordercolor="#000000"
     borderopacity="0.25"
     inkscape:showpageshadow="2"
     inkscape:pageopacity="0.0"
     inkscape:pagecheckerboard="0"
     inkscape:deskcolor="#d1d1d1"
     inkscape:zoom="4.3308904"
     inkscape:cx="42.48549"
     inkscape:cy="43.986336"
     inkscape:window-width="1920"
     inkscape:window-height="1022"
     inkscape:window-x="1080"
     inkscape:window-y="342"
     inkscape:window-maximized="1"
     inkscape:current-layer="svg2"
     showgrid="false" />
  <ellipse
     style="fill:none;fill-opacity:0.0980392;stroke:#c0bfbc;stroke-width:3;stroke-dasharray:none;stroke-opacity:0.698039"
     id="ellipse4"
     cx="32.080399"
     cy="28.821005"
     rx="29.137051"
     ry="11.312512"
     transform="matrix(0,1,1,0,0,0)" />
  <ellipse
     style="fill:none;fill-opacity:0.0980392;stroke:#c0bfbc;stroke-width:3;stroke-dasharray:none;stroke-opacity:0.698039"
     id="ellipse1"
     cx="31.919601"
     cy="-35.178993"
     rx="29.137051"
     ry="11.312512"
     transform="rotate(90)" />
  <g
     id="g7"
     transform="matrix(-0.90064848,-3.3612659,-3.3612659,0.90064848,179.59339,246.16706)">
    <path
       style="fill:#e92063;fill-opacity:1;stroke-width:0.0103763"
       d="m 74.014653,20.358239 c 0,0 -2.742591,1.622434 -2.877972,1.556451 -0.220497,-0.107489 0.05383,-0.610907 0.05383,-0.610907 -0.650251,0.548161 -1.300501,1.096323 -1.950752,1.644484 -0.0287,0.02464 -0.05675,0.05058 -0.08399,0.07782 -0.605065,0.605066 -0.605065,1.585962 0,2.191027 0.605065,0.605065 1.585961,0.605065 2.191026,0 0.06566,-0.06566 0.175755,-0.209478 0.175755,-0.209478 l 1.82801,-2.435835 c 0,0 -0.470958,0.250084 -0.564586,-0.109137 z"
       id="path6"
       sodipodi:nodetypes="cccsssscccc" />
    <circle
       style="fill:#f3f3f3;fill-opacity:0.702703;stroke-width:0.0103763"
       cx="70.25032"
       cy="24.120285"
       r="1.1067405"
       id="circle6" />
  </g>
  <g
     id="g4"
     transform="matrix(-0.6781718,0.39154267,0.39154267,0.6781718,29.583735,-29.902999)"
     style="fill:#c0bfbc">
    <path
       id="path3"
       style="fill:#c0bfbc;fill-opacity:1;stroke:none;stroke-width:2.554;stroke-linejoin:round;stroke-dasharray:none;stroke-opacity:1;paint-order:stroke markers fill"
       d="m 43.273314,44.104829 a 3.2041031,3.1808923 44.95377 0 0 -3.090241,2.334515 3.2041031,3.1808923 44.95377 0 0 2.247221,3.933261 3.2041031,3.1808923 44.95377 0 0 0.835537,0.117223 h 0.02494 l 3.167559,10e-7 -10e-7,-3.1925 a 3.2041031,3.1808923 44.95377 0 0 -2.356961,-3.075276 3.2041031,3.1808923 44.95377 0 0 -0.828054,-0.117224 z" />
  </g>
  <g
     id="g1"
     transform="matrix(0.6781718,-0.39154267,-0.39154267,-0.6781718,14.000718,69.035779)"
     style="fill:#c0bfbc">
    <path
       id="path1"
       style="fill:#c0bfbc;fill-opacity:1;stroke:none;stroke-width:2.554;stroke-linejoin:round;stroke-dasharray:none;stroke-opacity:1;paint-order:stroke markers fill"
       d="m 43.273314,44.104829 a 3.2041031,3.1808923 44.95377 0 0 -3.090241,2.334515 3.2041031,3.1808923 44.95377 0 0 2.247221,3.933261 3.2041031,3.1808923 44.95377 0 0 0.835537,0.117223 h 0.02494 l 3.167559,10e-7 -10e-7,-3.1925 a 3.2041031,3.1808923 44.95377 0 0 -2.356961,-3.075276 3.2041031,3.1808923 44.95377 0 0 -0.828054,-0.117224 z" />
  </g>
</svg>
