<?xml version="1.0" encoding="UTF-8" standalone="no"?>
<svg
   width="64"
   height="64"
   viewBox="0 0 64 64"
   fill="none"
   version="1.1"
   id="svg2"
   sodipodi:docname="logo-toolkit.svg"
   inkscape:version="1.4.3 (0d15f75, 2025-12-25)"
   xmlns:inkscape="http://www.inkscape.org/namespaces/inkscape"
   xmlns:sodipodi="http://sodipodi.sourceforge.net/DTD/sodipodi-0.dtd"
   xmlns="http://www.w3.org/2000/svg"
   xmlns:svg="http://www.w3.org/2000/svg">
  <defs
     id="defs2" />
  <sodipodi:namedview
     id="namedview2"
     pagecolor="#ffffff"
     bordercolor="#000000"
     borderopacity="0.25"
     inkscape:showpageshadow="2"
     inkscape:pageopacity="0.0"
     inkscape:pagecheckerboard="0"
     inkscape:deskcolor="#d1d1d1"
     inkscape:zoom="31.694472"
     inkscape:cx="25.730039"
     inkscape:cy="33.239235"
     inkscape:window-width="1920"
     inkscape:window-height="1022"
     inkscape:window-x="0"
     inkscape:window-y="369"
     inkscape:window-maximized="0"
     inkscape:current-layer="svg2"
     showgrid="false" />
  <ellipse
     style="fill:none;fill-opacity:0.0980392;stroke:#c0bfbc;stroke-width:3;stroke-dasharray:none;stroke-opacity:0.698039"
     id="ellipse25-0"
     cx="28.285368"
     cy="-31.99902"
     rx="15.387762"
     ry="5.9743266"
     transform="rotate(90)" />
  <ellipse
     style="fill:none;fill-opacity:0.0980392;stroke:#c0bfbc;stroke-width:3;stroke-dasharray:none;stroke-opacity:0.698039"
     id="ellipse3-3-9"
     cx="41.412468"
     cy="18.871933"
     rx="15.387762"
     ry="5.9743266" />
  <ellipse
     style="fill:none;fill-opacity:0.0980392;stroke:#c0bfbc;stroke-width:3;stroke-dasharray:none;stroke-opacity:0.698039"
     id="ellipse1"
     cx="47.11224"
     cy="-31.99902"
     rx="15.387762"
     ry="5.9743266"
     transform="rotate(90)" />
  <ellipse
     style="fill:none;fill-opacity:0.0980392;stroke:#c0bfbc;stroke-width:3;stroke-dasharray:none;stroke-opacity:0.698039"
     id="ellipse2-9-3"
     cx="-22.587534"
     cy="-19.038456"
     rx="15.387762"
     ry="5.9743266"
     transform="scale(-1)" />
  <g
     id="g7"
     transform="translate(-12.500128,-11.660169)"
     style="opacity:0.849576;fill:#ffa50a;fill-opacity:1">
    <ellipse
       style="fill:#ffa50a;fill-opacity:0.29955;stroke:none;stroke-width:3;stroke-linejoin:round;stroke-dasharray:none;stroke-opacity:1;paint-order:stroke markers fill"
       id="ellipse4"
       cx="17.38196"
       cy="33.16288"
       rx="1.9409472"
       ry="1.9135387"
       transform="matrix(-0.26508582,0.96422482,0.96422482,0.26508582,0,0)" />
    <ellipse
       style="fill:#ffa50a;fill-opacity:1;stroke:none;stroke-width:3;stroke-linejoin:round;stroke-dasharray:none;stroke-opacity:1;paint-order:stroke markers fill"
       id="ellipse5"
       cx="17.38196"
       cy="33.162884"
       rx="1.5814766"
       ry="1.5591443"
       transform="matrix(-0.26508582,0.96422482,0.96422482,0.26508582,0,0)" />
  </g>
  <g
     id="g8"
     transform="translate(-0.78749468,27.899236)"
     style="opacity:0.849576;fill:#ffa50a;fill-opacity:1">
    <ellipse
       style="fill:#ffa50a;fill-opacity:0.29955;stroke:none;stroke-width:3;stroke-linejoin:round;stroke-dasharray:none;stroke-opacity:1;paint-order:stroke markers fill"
       id="ellipse7"
       cx="17.38196"
       cy="33.16288"
       rx="1.9409472"
       ry="1.9135387"
       transform="matrix(-0.26508582,0.96422482,0.96422482,0.26508582,0,0)" />
    <ellipse
       style="fill:#ffa50a;fill-opacity:1;stroke:none;stroke-width:3;stroke-linejoin:round;stroke-dasharray:none;stroke-opacity:1;paint-order:stroke markers fill"
       id="ellipse8"
       cx="17.38196"
       cy="33.162884"
       rx="1.5814766"
       ry="1.5591443"
       transform="matrix(-0.26508582,0.96422482,0.96422482,0.26508582,0,0)" />
  </g>
  <g
     id="g2"
     transform="matrix(-2.4606174,-2.4606174,-2.4606174,2.4606174,264.21556,132.02791)">
    <path
       style="fill:#e92063;fill-opacity:1;stroke-width:0.0103763"
       d="m 74.014653,20.358239 c 0,0 -2.742591,1.622434 -2.877972,1.556451 -0.220497,-0.107489 0.05383,-0.610907 0.05383,-0.610907 -0.650251,0.548161 -1.300501,1.096323 -1.950752,1.644484 -0.0287,0.02464 -0.05675,0.05058 -0.08399,0.07782 -0.605065,0.605066 -0.605065,1.585962 0,2.191027 0.605065,0.605065 1.585961,0.605065 2.191026,0 0.06566,-0.06566 0.175755,-0.209478 0.175755,-0.209478 l 1.82801,-2.435835 c 0,0 -0.470958,0.250084 -0.564586,-0.109137 z"
       id="path2"
       sodipodi:nodetypes="cccsssscccc" />
    <circle
       style="fill:#f3f3f3;fill-opacity:0.702703;stroke-width:0.0103763"
       cx="70.25032"
       cy="24.120285"
       r="1.1067405"
       id="circle2" />
  </g>
  <g
     id="g4"
     transform="matrix(2.4606174,-2.4606174,-2.4606174,-2.4606174,-81.083989,269.97845)">
    <path
       style="fill:#e92063;fill-opacity:1;stroke-width:0.0103763"
       d="m 74.014653,20.358239 c 0,0 -2.742591,1.622434 -2.877972,1.556451 -0.220497,-0.107489 0.05383,-0.610907 0.05383,-0.610907 -0.650251,0.548161 -1.300501,1.096323 -1.950752,1.644484 -0.0287,0.02464 -0.05675,0.05058 -0.08399,0.07782 -0.605065,0.605066 -0.605065,1.585962 0,2.191027 0.605065,0.605065 1.585961,0.605065 2.191026,0 0.06566,-0.06566 0.175755,-0.209478 0.175755,-0.209478 l 1.82801,-2.435835 c 0,0 -0.470958,0.250084 -0.564586,-0.109137 z"
       id="path1"
       sodipodi:nodetypes="cccsssscccc" />
    <circle
       style="fill:#f3f3f3;fill-opacity:0.702703;stroke-width:0.0103763"
       cx="70.25032"
       cy="24.120285"
       r="1.1067405"
       id="circle1" />
  </g>
  <g
     id="g3"
     transform="translate(19.174913,-1.0113953)"
     style="opacity:0.849576;fill:#ffa50a;fill-opacity:1">
    <ellipse
       style="fill:#ffa50a;fill-opacity:0.29955;stroke:none;stroke-width:3;stroke-linejoin:round;stroke-dasharray:none;stroke-opacity:1;paint-order:stroke markers fill"
       id="ellipse2"
       cx="17.38196"
       cy="33.16288"
       rx="1.9409472"
       ry="1.9135387"
       transform="matrix(-0.26508582,0.96422482,0.96422482,0.26508582,0,0)" />
    <ellipse
       style="fill:#ffa50a;fill-opacity:1;stroke:none;stroke-width:3;stroke-linejoin:round;stroke-dasharray:none;stroke-opacity:1;paint-order:stroke markers fill"
       id="ellipse3"
       cx="17.38196"
       cy="33.162884"
       rx="1.5814766"
       ry="1.5591443"
       transform="matrix(-0.26508582,0.96422482,0.96422482,0.26508582,0,0)" />
  </g>
  <g
     id="g10"
     transform="translate(-1.3181363,3.8449284)"
     style="opacity:0.849576;fill:#ffa50a;fill-opacity:1">
    <ellipse
       style="fill:#ffa50a;fill-opacity:0.29955;stroke:none;stroke-width:3;stroke-linejoin:round;stroke-dasharray:none;stroke-opacity:1;paint-order:stroke markers fill"
       id="ellipse9"
       cx="17.38196"
       cy="33.16288"
       rx="1.9409472"
       ry="1.9135387"
       transform="matrix(-0.26508582,0.96422482,0.96422482,0.26508582,0,0)" />
    <ellipse
       style="fill:#ffa50a;fill-opacity:1;stroke:none;stroke-width:3;stroke-linejoin:round;stroke-dasharray:none;stroke-opacity:1;paint-order:stroke markers fill"
       id="ellipse10"
       cx="17.38196"
       cy="33.162884"
       rx="1.5814766"
       ry="1.5591443"
       transform="matrix(-0.26508582,0.96422482,0.96422482,0.26508582,0,0)" />
  </g>
</svg>
