<?xml version="1.0" encoding="UTF-8" standalone="no"?>
<svg
   width="64"
   height="64"
   viewBox="0 0 64 64"
   fill="none"
   version="1.1"
   id="svg2"
   sodipodi:docname="logo-sandbox.svg"
   inkscape:version="1.4.3 (0d15f75, 2025-12-25)"
   xmlns:inkscape="http://www.inkscape.org/namespaces/inkscape"
   xmlns:sodipodi="http://sodipodi.sourceforge.net/DTD/sodipodi-0.dtd"
   xmlns="http://www.w3.org/2000/svg"
   xmlns:svg="http://www.w3.org/2000/svg">
  <defs
     id="defs2" />
  <sodipodi:namedview
     id="namedview2"
     pagecolor="#ffffff"
     bordercolor="#000000"
     borderopacity="0.25"
     inkscape:showpageshadow="2"
     inkscape:pageopacity="0.0"
     inkscape:pagecheckerboard="0"
     inkscape:deskcolor="#d1d1d1"
     inkscape:zoom="9.1632066"
     inkscape:cx="20.189439"
     inkscape:cy="28.647177"
     inkscape:window-width="1920"
     inkscape:window-height="1022"
     inkscape:window-x="1080"
     inkscape:window-y="342"
     inkscape:window-maximized="1"
     inkscape:current-layer="svg2"
     showgrid="false" />
  <g
     id="g25"
     transform="translate(1.3892744e-7,-2.508841)">
    <g
       id="g24"
       transform="rotate(-90,32,34.508841)">
      <g
         id="g19"
         transform="translate(-0.0513995,6.0415737)">
        <g
           id="g2"
           transform="matrix(-0.617561,0.78652299,0.78652299,0.617561,51.433328,18.588498)">
          <ellipse
             style="fill:none;fill-opacity:0.0980392;stroke:#c0bfbc;stroke-width:3;stroke-dasharray:none;stroke-opacity:0.698039"
             id="ellipse1"
             cx="26.033651"
             cy="-6.0847464"
             rx="16.582996"
             ry="6.4383779"
             transform="scale(1,-1)" />
          <path
             id="path1"
             style="fill:#c0bfbc;fill-opacity:1;stroke:none;stroke-width:2;stroke-linejoin:round;stroke-dasharray:none;stroke-opacity:1;paint-order:stroke markers fill"
             d="M 15.951401,9.5474049 A 2.5090861,2.4909101 30.04623 0 1 14.81189,12.358024 2.5090861,2.4909101 30.04623 0 1 11.381301,11.455403 2.5090861,2.4909101 30.04623 0 1 11.123289,10.84716 l -0.0051,-0.01886 -0.641993,-2.3959491 2.414815,-0.647047 a 2.5090861,2.4909101 30.04623 0 1 2.803848,1.159522 2.5090861,2.4909101 30.04623 0 1 0.256497,0.602584 z" />
        </g>
        <g
           id="g15"
           transform="matrix(0.29159624,-0.72676976,0.72676976,0.29159624,-11.264919,72.675811)"
           style="fill:#c0bfbc" />
        <g
           id="g16"
           transform="rotate(51.861756,-12.779791,22.322249)">
          <ellipse
             style="fill:none;fill-opacity:0.0980392;stroke:#c0bfbc;stroke-width:3;stroke-dasharray:none;stroke-opacity:0.698039"
             id="ellipse15"
             cx="26.033651"
             cy="-6.0847464"
             rx="16.582996"
             ry="6.4383779"
             transform="scale(1,-1)" />
          <path
             id="path16"
             style="fill:#c0bfbc;fill-opacity:1;stroke:none;stroke-width:2;stroke-linejoin:round;stroke-dasharray:none;stroke-opacity:1;paint-order:stroke markers fill"
             d="M 15.951401,9.5474049 A 2.5090861,2.4909101 30.04623 0 1 14.81189,12.358024 2.5090861,2.4909101 30.04623 0 1 11.381301,11.455403 2.5090861,2.4909101 30.04623 0 1 11.123289,10.84716 l -0.0051,-0.01886 -0.641993,-2.3959491 2.414815,-0.647047 a 2.5090861,2.4909101 30.04623 0 1 2.803848,1.159522 2.5090861,2.4909101 30.04623 0 1 0.256497,0.602584 z" />
        </g>
        <g
           id="g17"
           transform="rotate(-128.13824,37.191194,11.094014)">
          <ellipse
             style="fill:none;fill-opacity:0.0980392;stroke:#c0bfbc;stroke-width:3;stroke-dasharray:none;stroke-opacity:0.698039"
             id="ellipse16"
             cx="26.033651"
             cy="-6.0847464"
             rx="16.582996"
             ry="6.4383779"
             transform="scale(1,-1)" />
        </g>
        <g
           id="g18"
           transform="matrix(0.617561,-0.78652299,-0.78652299,-0.617561,12.669471,47.196976)">
          <ellipse
             style="fill:none;fill-opacity:0.0980392;stroke:#c0bfbc;stroke-width:3;stroke-dasharray:none;stroke-opacity:0.698039"
             id="ellipse17"
             cx="26.033651"
             cy="-6.0847464"
             rx="16.582996"
             ry="6.4383779"
             transform="scale(1,-1)" />
        </g>
      </g>
      <g
         id="g5"
         transform="matrix(-3.3612659,-0.90064848,-0.90064848,3.3612659,272.5396,21.461137)">
        <path
           style="fill:#e92063;fill-opacity:1;stroke-width:0.0103763"
           d="m 74.014653,20.358239 c 0,0 -2.742591,1.622434 -2.877972,1.556451 -0.220497,-0.107489 0.05383,-0.610907 0.05383,-0.610907 -0.650251,0.548161 -1.300501,1.096323 -1.950752,1.644484 -0.0287,0.02464 -0.05675,0.05058 -0.08399,0.07782 -0.605065,0.605066 -0.605065,1.585962 0,2.191027 0.605065,0.605065 1.585961,0.605065 2.191026,0 0.06566,-0.06566 0.175755,-0.209478 0.175755,-0.209478 l 1.82801,-2.435835 c 0,0 -0.470958,0.250084 -0.564586,-0.109137 z"
           id="path4"
           sodipodi:nodetypes="cccsssscccc" />
        <circle
           style="fill:#f3f3f3;fill-opacity:0.702703;stroke-width:0.0103763"
           cx="70.25032"
           cy="24.120285"
           r="1.1067405"
           id="circle4" />
      </g>
      <g
         id="g20"
         transform="matrix(3.3612659,-0.90064848,0.90064848,3.3612659,-208.5396,21.461137)">
        <path
           style="fill:#e92063;fill-opacity:1;stroke-width:0.0103763"
           d="m 74.014653,20.358239 c 0,0 -2.742591,1.622434 -2.877972,1.556451 -0.220497,-0.107489 0.05383,-0.610907 0.05383,-0.610907 -0.650251,0.548161 -1.300501,1.096323 -1.950752,1.644484 -0.0287,0.02464 -0.05675,0.05058 -0.08399,0.07782 -0.605065,0.605066 -0.605065,1.585962 0,2.191027 0.605065,0.605065 1.585961,0.605065 2.191026,0 0.06566,-0.06566 0.175755,-0.209478 0.175755,-0.209478 l 1.82801,-2.435835 c 0,0 -0.470958,0.250084 -0.564586,-0.109137 z"
           id="path19"
           sodipodi:nodetypes="cccsssscccc" />
        <circle
           style="fill:#f3f3f3;fill-opacity:0.702703;stroke-width:0.0103763"
           cx="70.25032"
           cy="24.120285"
           r="1.1067405"
           id="circle19" />
      </g>
      <g
         id="g10"
         transform="matrix(-0.29159624,-0.72676976,-0.72676976,0.29159624,76.036517,79.157833)"
         style="fill:#c0bfbc">
        <path
           id="path10"
           style="fill:#c0bfbc;fill-opacity:1;stroke:none;stroke-width:2.554;stroke-linejoin:round;stroke-dasharray:none;stroke-opacity:1;paint-order:stroke markers fill"
           d="m 43.273314,44.104829 a 3.2041031,3.1808923 44.95377 0 0 -3.090241,2.334515 3.2041031,3.1808923 44.95377 0 0 2.247221,3.933261 3.2041031,3.1808923 44.95377 0 0 0.835537,0.117223 h 0.02494 l 3.167559,10e-7 -10e-7,-3.1925 a 3.2041031,3.1808923 44.95377 0 0 -2.356961,-3.075276 3.2041031,3.1808923 44.95377 0 0 -0.828054,-0.117224 z" />
      </g>
      <g
         id="g21"
         transform="matrix(0.29159624,-0.72676976,0.72676976,0.29159624,-11.683022,79.157833)"
         style="fill:#c0bfbc">
        <path
           id="path21"
           style="fill:#c0bfbc;fill-opacity:1;stroke:none;stroke-width:2.554;stroke-linejoin:round;stroke-dasharray:none;stroke-opacity:1;paint-order:stroke markers fill"
           d="m 43.273314,44.104829 a 3.2041031,3.1808923 44.95377 0 0 -3.090241,2.334515 3.2041031,3.1808923 44.95377 0 0 2.247221,3.933261 3.2041031,3.1808923 44.95377 0 0 0.835537,0.117223 h 0.02494 l 3.167559,10e-7 -10e-7,-3.1925 a 3.2041031,3.1808923 44.95377 0 0 -2.356961,-3.075276 3.2041031,3.1808923 44.95377 0 0 -0.828054,-0.117224 z" />
      </g>
      <g
         id="g23">
        <g
           id="g12"
           transform="rotate(15,73.701251,37.480496)">
          <path
             style="fill:#e92063;fill-opacity:1;stroke-width:0.0361078"
             d="m 37.837753,13.482113 c 0,0 -2.983322,10.679821 -2.639605,11.075444 0.559889,0.64434 2.00494,-0.731149 2.00494,-0.731149 -1.256868,2.679367 -2.513739,5.358732 -3.770607,8.038098 -0.05697,0.118666 -0.118903,0.236306 -0.18593,0.352401 -1.488836,2.578736 -4.785889,3.462178 -7.364624,1.973345 -2.578735,-1.488834 -3.462178,-4.785886 -1.973344,-7.364622 0.161564,-0.279837 0.545818,-0.779425 0.545818,-0.779425 l 6.541094,-8.338258 c 0,0 -0.416431,1.808253 0.875332,1.79943 z"
             id="path7"
             sodipodi:nodetypes="cccsssscccc" />
          <circle
             style="fill:#f3f3f3;fill-opacity:0.702703;stroke-width:0.0361078"
             cx="-35.915123"
             cy="-19.967722"
             r="3.8512781"
             id="circle7"
             transform="matrix(-0.25881904,-0.96592583,-0.96592583,0.25881904,0,0)" />
        </g>
        <g
           id="g22"
           transform="matrix(-0.96592583,0.25881905,0.25881905,0.96592583,52.125965,-17.79817)">
          <path
             style="fill:#e92063;fill-opacity:1;stroke-width:0.0361078"
             d="m 37.837753,13.482113 c 0,0 -2.983322,10.679821 -2.639605,11.075444 0.559889,0.64434 2.00494,-0.731149 2.00494,-0.731149 -1.256868,2.679367 -2.513739,5.358732 -3.770607,8.038098 -0.05697,0.118666 -0.118903,0.236306 -0.18593,0.352401 -1.488836,2.578736 -4.785889,3.462178 -7.364624,1.973345 -2.578735,-1.488834 -3.462178,-4.785886 -1.973344,-7.364622 0.161564,-0.279837 0.545818,-0.779425 0.545818,-0.779425 l 6.541094,-8.338258 c 0,0 -0.416431,1.808253 0.875332,1.79943 z"
             id="path22"
             sodipodi:nodetypes="cccsssscccc" />
          <circle
             style="fill:#f3f3f3;fill-opacity:0.702703;stroke-width:0.0361078"
             cx="-35.915123"
             cy="-19.967722"
             r="3.8512781"
             id="circle22"
             transform="matrix(-0.25881904,-0.96592583,-0.96592583,0.25881904,0,0)" />
        </g>
      </g>
    </g>
  </g>
</svg>
