<?xml version="1.0" encoding="UTF-8" standalone="no"?>
<!-- Generator: Adobe Illustrator 23.0.2, SVG Export Plug-In . SVG Version: 6.00 Build 0)  -->

<svg
   version="1.1"
   id="Layer_1"
   x="0px"
   y="0px"
   viewBox="0 0 24 24"
   xml:space="preserve"
   sodipodi:docname="logo-svelte.svg"
   width="24"
   height="24"
   inkscape:version="1.4.3 (0d15f75, 2025-12-25)"
   xmlns:inkscape="http://www.inkscape.org/namespaces/inkscape"
   xmlns:sodipodi="http://sodipodi.sourceforge.net/DTD/sodipodi-0.dtd"
   xmlns="http://www.w3.org/2000/svg"
   xmlns:svg="http://www.w3.org/2000/svg"><defs
   id="defs2"><linearGradient
     id="a"
     gradientUnits="userSpaceOnUse"
     x1="27.028"
     x2="151.54201"
     y1="3.451"
     y2="63.890999"><stop
       offset=".118"
       stop-color="#bbbdbf"
       id="stop1" /><stop
       offset=".299"
       stop-color="#f1f1f2"
       id="stop2" /><stop
       offset="1"
       stop-color="#d0d2d3"
       id="stop3" /></linearGradient><linearGradient
     id="b"
     gradientUnits="userSpaceOnUse"
     x1="95.306999"
     x2="73.509003"
     y1="32.987999"
     y2="105.648"><stop
       offset="0"
       stop-color="#bbbdbf"
       id="stop4" /><stop
       offset=".475"
       stop-color="#929497"
       id="stop5" /><stop
       offset="1"
       stop-color="#58595b"
       id="stop6" /></linearGradient><linearGradient
     id="c"
     gradientUnits="userSpaceOnUse"
     x1="17.931999"
     x2="143.767"
     y1="64.627998"
     y2="150.16901"><stop
       offset="0"
       stop-color="#58595b"
       id="stop7" /><stop
       offset=".539"
       stop-color="#929497"
       id="stop8" /><stop
       offset="1"
       stop-color="#58595b"
       id="stop9" /></linearGradient><linearGradient
     id="d"
     gradientUnits="userSpaceOnUse"
     x1="74.763"
     x2="23.900999"
     y1="74.908997"
     y2="261.18399"><stop
       offset="0"
       stop-color="#4377bb"
       id="stop10" /><stop
       offset="0"
       stop-color="#808184"
       id="stop11" /><stop
       offset=".475"
       stop-color="#404041"
       id="stop12" /><stop
       offset="1"
       stop-color="#231f20"
       id="stop13" /></linearGradient></defs><sodipodi:namedview
   id="namedview2"
   pagecolor="#ffffff"
   bordercolor="#000000"
   borderopacity="0.25"
   inkscape:showpageshadow="2"
   inkscape:pageopacity="0.0"
   inkscape:pagecheckerboard="0"
   inkscape:deskcolor="#d1d1d1"
   inkscape:zoom="13.84044"
   inkscape:cx="9.3205127"
   inkscape:cy="19.32742"
   inkscape:window-width="1080"
   inkscape:window-height="1862"
   inkscape:window-x="0"
   inkscape:window-y="30"
   inkscape:window-maximized="1"
   inkscape:current-layer="Layer_1" />
<style
   type="text/css"
   id="style1">
	.st0{fill:#FF3E00;}
	.st1{fill:#FFFFFF;}
</style>
<path
   class="st0"
   d="M 20.697779,3.174914 C 18.481341,-0.01757115 14.068797,-0.95294895 10.896646,1.0601468 L 5.3047139,4.6389836 C 3.7796414,5.5946957 2.7222579,7.1604368 2.4172434,8.9295209 2.1528975,10.413925 2.3765748,11.938997 3.0882753,13.260727 c -0.4880232,0.732034 -0.813372,1.545406 -0.9557121,2.399447 -0.3253488,1.809753 0.1016715,3.680508 1.159055,5.164912 2.236773,3.192485 6.6289818,4.127863 9.8011328,2.114767 l 5.591933,-3.558502 c 1.525072,-0.955712 2.582456,-2.521453 2.88747,-4.290537 0.264346,-1.484404 0.04067,-3.009477 -0.671032,-4.331206 0.488023,-0.732035 0.813372,-1.5454069 0.955712,-2.3994475 0.345683,-1.830087 -0.08134,-3.7008426 -1.159055,-5.1852465"
   id="path1"
   style="stroke-width:0.203343;fill:#5e5e60;fill-opacity:1" />
<path
   class="st1"
   d="M 10.352922,21.130101 C 8.5431689,21.59779 6.652079,20.886089 5.5946954,19.361017 4.9439978,18.466307 4.6999862,17.347921 4.8829949,16.249869 4.9236639,16.06686 4.9643319,15.904186 5.0050007,15.721177 l 0.1016715,-0.325349 0.2846802,0.203343 c 0.6710319,0.488023 1.4030667,0.854041 2.1961044,1.098052 l 0.203343,0.061 -0.020334,0.203343 c -0.020334,0.28468 0.061003,0.589695 0.2236773,0.833707 0.3253488,0.467688 0.8947092,0.691366 1.4437353,0.549026 0.1220058,-0.04067 0.2440116,-0.08134 0.3456831,-0.14234 l 5.5715975,-3.558503 c 0.284681,-0.183009 0.467689,-0.447355 0.528692,-0.772703 0.061,-0.325349 -0.02033,-0.671032 -0.203343,-0.935378 -0.325349,-0.467689 -0.894709,-0.671032 -1.443735,-0.528692 -0.122006,0.04067 -0.244012,0.08134 -0.345683,0.14234 l -2.135102,1.362401 c -0.345683,0.223678 -0.732034,0.386352 -1.13872,0.488023 C 8.8075148,14.867136 6.9164249,14.155436 5.8590413,12.630363 5.228678,11.735654 4.9643321,10.617268 5.1676751,9.5192152 5.3506838,8.4618316 6.0013814,7.5061195 6.9164249,6.9367591 L 12.508357,3.3782566 c 0.345683,-0.2236773 0.732035,-0.3863517 1.138721,-0.5083575 1.809753,-0.4676889 3.700843,0.2440116 4.758226,1.7690841 0.650698,0.8947092 0.89471,2.0130957 0.711701,3.1111479 -0.04067,0.1830087 -0.08134,0.3456831 -0.14234,0.5286918 l -0.101672,0.3253488 -0.28468,-0.203343 C 17.917281,7.9128055 17.185246,7.5467881 16.392209,7.3027765 l -0.203343,-0.061003 0.02033,-0.203343 C 16.229526,6.7537503 16.148196,6.4487358 15.985519,6.2047242 15.66017,5.7370353 15.090809,5.5336923 14.541783,5.6760324 14.419778,5.7167014 14.297772,5.7573694 14.1961,5.8183725 L 8.6245061,9.3768751 C 8.3398259,9.5598838 8.1568172,9.8242297 8.0958143,10.149579 c -0.061003,0.325349 0.020334,0.671032 0.203343,0.935378 0.3253488,0.467688 0.8947092,0.671031 1.4437353,0.528691 0.1220058,-0.04067 0.2440116,-0.08134 0.3456834,-0.14234 l 2.135101,-1.362398 c 0.345683,-0.2236774 0.732035,-0.3863518 1.138721,-0.5083576 1.809753,-0.4676889 3.700843,0.2440116 4.758226,1.7690846 0.650698,0.894709 0.894709,2.013095 0.711701,3.111148 -0.183009,1.057383 -0.833707,2.013095 -1.74875,2.582456 l -5.591933,3.558502 c -0.345683,0.223678 -0.732034,0.386352 -1.13872,0.508358"
   id="path2"
   style="stroke-width:0.203343" />
</svg>
