<?xml version="1.0" encoding="UTF-8" standalone="no"?>
<svg
   width="64"
   height="64"
   viewBox="0 0 64 64"
   fill="none"
   version="1.1"
   id="svg2"
   sodipodi:docname="logo-permit.svg"
   inkscape:version="1.4.2 (ebf0e940, 2025-05-08)"
   xmlns:inkscape="http://www.inkscape.org/namespaces/inkscape"
   xmlns:sodipodi="http://sodipodi.sourceforge.net/DTD/sodipodi-0.dtd"
   xmlns:xlink="http://www.w3.org/1999/xlink"
   xmlns="http://www.w3.org/2000/svg"
   xmlns:svg="http://www.w3.org/2000/svg">
  <defs
     id="defs2" />
  <sodipodi:namedview
     id="namedview2"
     pagecolor="#ffffff"
     bordercolor="#000000"
     borderopacity="0.25"
     inkscape:showpageshadow="2"
     inkscape:pageopacity="0.0"
     inkscape:pagecheckerboard="0"
     inkscape:deskcolor="#d1d1d1"
     inkscape:zoom="7.3772929"
     inkscape:cx="23.85699"
     inkscape:cy="53.407124"
     inkscape:window-width="1920"
     inkscape:window-height="1027"
     inkscape:window-x="0"
     inkscape:window-y="680"
     inkscape:window-maximized="1"
     inkscape:current-layer="g6" />
  <g
     id="g6"
     transform="translate(-117.67549,7.1225452)">
    <ellipse
       style="fill:none;fill-opacity:1;stroke:#c0bfbc;stroke-width:3.03028;stroke-linejoin:round;stroke-dasharray:none;stroke-opacity:0.696078;paint-order:stroke markers fill"
       id="path25-9-4-4"
       cx="43.185776"
       cy="-158.93854"
       rx="11.468129"
       ry="29.767351"
       transform="matrix(-0.20567069,0.97862126,-0.99997263,-0.00739852,0,0)" />
    <g
       id="g14"
       transform="translate(117.04084,7.8665001)"
       style="stroke-width:1.03313;stroke-dasharray:none">
      <g
         id="g13"
         transform="matrix(0.96913186,0,0,0.96913186,-22.209141,-113.46144)">
        <g
           id="g12">
          <path
             id="path11"
             style="fill:#c0bfbc;fill-opacity:0.5;stroke:none;stroke-width:3.75902;stroke-linejoin:round;stroke-dasharray:none;stroke-opacity:1;paint-order:stroke markers fill"
             sodipodi:type="inkscape:offset"
             inkscape:radius="0"
             inkscape:original="M -121.70703 -7.0585938 A 2.1908956 2.3345571 0 0 0 -123.89844 -4.7246094 A 2.1908956 2.3345571 0 0 0 -121.70703 -2.390625 A 2.1908956 2.3345571 0 0 0 -119.51562 -4.7246094 A 2.1908956 2.3345571 0 0 0 -121.70703 -7.0585938 z "
             d="m -121.70703,-7.0585938 a 2.1908956,2.3345571 0 0 0 -2.19141,2.3339844 2.1908956,2.3345571 0 0 0 2.19141,2.3339844 2.1908956,2.3345571 0 0 0 2.19141,-2.3339844 2.1908956,2.3345571 0 0 0 -2.19141,-2.3339844 z"
             transform="matrix(2.0626665,1.1908811,1.1908811,-2.0626665,312.70986,273.96417)" />
          <path
             id="path12"
             style="fill:#ed333b;fill-opacity:1;stroke:none;stroke-width:3.75902;stroke-linejoin:round;stroke-dasharray:none;stroke-opacity:1;paint-order:stroke markers fill"
             sodipodi:type="inkscape:offset"
             inkscape:radius="0"
             inkscape:original="M -121.70703 -7.0585938 A 2.1908956 2.3345571 0 0 0 -123.89844 -4.7246094 A 2.1908956 2.3345571 0 0 0 -121.70703 -2.390625 A 2.1908956 2.3345571 0 0 0 -119.51562 -4.7246094 A 2.1908956 2.3345571 0 0 0 -121.70703 -7.0585938 z "
             d="m -121.70703,-7.0585938 a 2.1908956,2.3345571 0 0 0 -2.19141,2.3339844 2.1908956,2.3345571 0 0 0 2.19141,2.3339844 2.1908956,2.3345571 0 0 0 2.19141,-2.3339844 2.1908956,2.3345571 0 0 0 -2.19141,-2.3339844 z"
             transform="matrix(1.7582737,1.0151398,1.0151398,-1.7582737,274.83234,254.01323)" />
        </g>
      </g>
    </g>
    <ellipse
       style="fill:none;fill-opacity:1;stroke:#c0bfbc;stroke-width:3.03027808;stroke-linejoin:round;stroke-dasharray:none;stroke-opacity:0.696078;paint-order:stroke markers fill"
       id="path25-9-3"
       cx="132.6891"
       cy="71.997528"
       rx="11.52307"
       ry="29.90996"
       transform="matrix(0.95034622,-0.31119458,0.493579,0.86970097,0,0)" />
    <ellipse
       style="fill:none;fill-opacity:1;stroke:#c0bfbc;stroke-width:3.03028;stroke-linejoin:round;stroke-dasharray:none;stroke-opacity:0.696078;paint-order:stroke markers fill"
       id="path25-9-3-6"
       cx="-135.01091"
       cy="-13.879622"
       rx="11.468129"
       ry="29.767351"
       transform="matrix(-0.96709511,-0.2544151,-0.4412519,0.89738328,0,0)" />
    <use
       x="0"
       y="0"
       xlink:href="#use11"
       id="use7"
       transform="translate(23.23656,14.056684)" />
    <use
       x="0"
       y="0"
       xlink:href="#use7"
       id="use8"
       transform="translate(3.155582,-47.262015)" />
    <g
       id="use11"
       transform="matrix(-0.91529214,1.5853324,-1.5853324,-0.91529214,48.799099,250.25622)"
       style="stroke-width:1.03313;stroke-dasharray:none">
      <ellipse
         style="fill:#ffa348;fill-opacity:0.502451;stroke:none;stroke-width:1.72217;stroke-linejoin:round;stroke-dasharray:none;stroke-opacity:1;paint-order:stroke markers fill"
         id="ellipse5"
         cx="-124.14648"
         cy="-15.203258"
         rx="1.0435266"
         ry="1.0287908"
         transform="scale(1,-1)" />
      <ellipse
         style="fill:#e5a50a;fill-opacity:1;stroke:none;stroke-width:1.40322;stroke-linejoin:round;stroke-dasharray:none;stroke-opacity:1;paint-order:stroke markers fill"
         id="ellipse6"
         cx="-124.14648"
         cy="-15.203257"
         rx="0.85026163"
         ry="0.83825499"
         transform="scale(1,-1)" />
    </g>
  </g>
</svg>
