<?xml version="1.0" encoding="UTF-8" standalone="no"?>
<svg
   width="64"
   height="64"
   viewBox="0 0 64 64"
   fill="none"
   version="1.1"
   id="svg2"
   sodipodi:docname="logo-pulse.svg"
   inkscape:version="1.4.3 (0d15f75, 2025-12-25)"
   xmlns:inkscape="http://www.inkscape.org/namespaces/inkscape"
   xmlns:sodipodi="http://sodipodi.sourceforge.net/DTD/sodipodi-0.dtd"
   xmlns="http://www.w3.org/2000/svg"
   xmlns:svg="http://www.w3.org/2000/svg">
  <defs
     id="defs2" />
  <sodipodi:namedview
     id="namedview2"
     pagecolor="#ffffff"
     bordercolor="#000000"
     borderopacity="0.25"
     inkscape:showpageshadow="2"
     inkscape:pageopacity="0.0"
     inkscape:pagecheckerboard="0"
     inkscape:deskcolor="#d1d1d1"
     inkscape:zoom="7.8972676"
     inkscape:cx="31.783145"
     inkscape:cy="34.632232"
     inkscape:window-width="1920"
     inkscape:window-height="1022"
     inkscape:window-x="1080"
     inkscape:window-y="342"
     inkscape:window-maximized="1"
     inkscape:current-layer="svg2"
     showgrid="false" />
  <g
     id="g18"
     transform="translate(19.566047,-8.3854489)">
    <g
       id="g4"
       transform="rotate(120,87.862625,51.495771)">
      <ellipse
         style="fill:none;fill-opacity:0.0980392;stroke:#c0bfbc;stroke-width:3;stroke-dasharray:none;stroke-opacity:0.698039"
         id="ellipse1"
         cx="32"
         cy="32.342716"
         rx="29.137051"
         ry="11.312512" />
      <g
         id="g10"
         transform="rotate(-120,25.651426,37.070594)"
         style="opacity:0.849576;fill:#ffa50a;fill-opacity:1">
        <ellipse
           style="fill:#ffa50a;fill-opacity:0.29955;stroke:none;stroke-width:3;stroke-linejoin:round;stroke-dasharray:none;stroke-opacity:1;paint-order:stroke markers fill"
           id="ellipse9"
           cx="17.38196"
           cy="33.16288"
           rx="1.9409472"
           ry="1.9135387"
           transform="matrix(-0.26508582,0.96422482,0.96422482,0.26508582,0,0)" />
        <ellipse
           style="fill:#ffa50a;fill-opacity:1;stroke:none;stroke-width:3;stroke-linejoin:round;stroke-dasharray:none;stroke-opacity:1;paint-order:stroke markers fill"
           id="ellipse10"
           cx="17.38196"
           cy="33.162884"
           rx="1.5814766"
           ry="1.5591443"
           transform="matrix(-0.26508582,0.96422482,0.96422482,0.26508582,0,0)" />
      </g>
      <g
         id="g2"
         transform="matrix(-2.4606174,-2.4606174,-2.4606174,2.4606174,264.21556,144.15807)">
        <path
           style="fill:#e92063;fill-opacity:1;stroke-width:0.0103763"
           d="m 74.014653,20.358239 c 0,0 -2.742591,1.622434 -2.877972,1.556451 -0.220497,-0.107489 0.05383,-0.610907 0.05383,-0.610907 -0.650251,0.548161 -1.300501,1.096323 -1.950752,1.644484 -0.0287,0.02464 -0.05675,0.05058 -0.08399,0.07782 -0.605065,0.605066 -0.605065,1.585962 0,2.191027 0.605065,0.605065 1.585961,0.605065 2.191026,0 0.06566,-0.06566 0.175755,-0.209478 0.175755,-0.209478 l 1.82801,-2.435835 c 0,0 -0.470958,0.250084 -0.564586,-0.109137 z"
           id="path2"
           sodipodi:nodetypes="cccsssscccc" />
        <circle
           style="fill:#f3f3f3;fill-opacity:0.702703;stroke-width:0.0103763"
           cx="70.25032"
           cy="24.120285"
           r="1.1067405"
           id="circle2" />
      </g>
    </g>
    <g
       id="g8"
       transform="matrix(0.5,0.8660254,0.8660254,-0.5,62.717336,1.1523916)">
      <ellipse
         style="fill:none;fill-opacity:0.0980392;stroke:#c0bfbc;stroke-width:3;stroke-dasharray:none;stroke-opacity:0.698039"
         id="ellipse4"
         cx="32"
         cy="32.342716"
         rx="29.137051"
         ry="11.312512" />
      <g
         id="g6"
         transform="rotate(-120,25.651426,37.070594)"
         style="opacity:0.849576;fill:#ffa50a;fill-opacity:1">
        <ellipse
           style="fill:#ffa50a;fill-opacity:0.29955;stroke:none;stroke-width:3;stroke-linejoin:round;stroke-dasharray:none;stroke-opacity:1;paint-order:stroke markers fill"
           id="ellipse5"
           cx="17.38196"
           cy="33.16288"
           rx="1.9409472"
           ry="1.9135387"
           transform="matrix(-0.26508582,0.96422482,0.96422482,0.26508582,0,0)" />
        <ellipse
           style="fill:#ffa50a;fill-opacity:1;stroke:none;stroke-width:3;stroke-linejoin:round;stroke-dasharray:none;stroke-opacity:1;paint-order:stroke markers fill"
           id="ellipse6"
           cx="17.38196"
           cy="33.162884"
           rx="1.5814766"
           ry="1.5591443"
           transform="matrix(-0.26508582,0.96422482,0.96422482,0.26508582,0,0)" />
      </g>
      <g
         id="g7"
         transform="matrix(-2.4606174,-2.4606174,-2.4606174,2.4606174,264.21556,144.15807)">
        <path
           style="fill:#e92063;fill-opacity:1;stroke-width:0.0103763"
           d="m 74.014653,20.358239 c 0,0 -2.742591,1.622434 -2.877972,1.556451 -0.220497,-0.107489 0.05383,-0.610907 0.05383,-0.610907 -0.650251,0.548161 -1.300501,1.096323 -1.950752,1.644484 -0.0287,0.02464 -0.05675,0.05058 -0.08399,0.07782 -0.605065,0.605066 -0.605065,1.585962 0,2.191027 0.605065,0.605065 1.585961,0.605065 2.191026,0 0.06566,-0.06566 0.175755,-0.209478 0.175755,-0.209478 l 1.82801,-2.435835 c 0,0 -0.470958,0.250084 -0.564586,-0.109137 z"
           id="path6"
           sodipodi:nodetypes="cccsssscccc" />
        <circle
           style="fill:#f3f3f3;fill-opacity:0.702703;stroke-width:0.0103763"
           cx="70.25032"
           cy="24.120285"
           r="1.1067405"
           id="circle6" />
      </g>
    </g>
  </g>
  <ellipse
     style="fill:none;fill-opacity:0.0980392;stroke:#c0bfbc;stroke-width:3;stroke-dasharray:none;stroke-opacity:0.698039"
     id="ellipse16"
     cx="13.811298"
     cy="32.137348"
     rx="12.311298"
     ry="4.7798839" />
  <g
     id="g19"
     transform="translate(0.52416706,0.4841644)"
     style="stroke-width:3;stroke-dasharray:none">
    <ellipse
       style="fill:none;fill-opacity:0.0980392;stroke:#c0bfbc;stroke-width:3;stroke-dasharray:none;stroke-opacity:0.698039"
       id="ellipse2"
       cx="-15.851916"
       cy="29.591425"
       rx="12.311298"
       ry="4.7798839"
       transform="rotate(-75)" />
    <ellipse
       style="fill:none;fill-opacity:0.0980392;stroke:#c0bfbc;stroke-width:3;stroke-dasharray:none;stroke-opacity:0.698039"
       id="ellipse3"
       cx="-29.823471"
       cy="22.551126"
       rx="12.311298"
       ry="4.7798839"
       transform="rotate(-105)" />
  </g>
  <g
     id="g20"
     transform="translate(0.14732682,-2.363096)">
    <path
       style="fill:#e92063;fill-opacity:1;stroke-width:0.0361078"
       d="m 27.36779,36.274783 c 0,0 2.756278,-10.740657 3.251757,-10.911418 0.807048,-0.27807 1.370754,1.635663 1.370754,1.635663 0.251204,-2.948833 0.502404,-5.897667 0.753608,-8.8465 0.01,-0.13125 0.01518,-0.264098 0.01518,-0.398153 -2e-6,-2.977669 -2.413612,-5.391279 -5.391279,-5.391279 -2.977667,0 -5.391277,2.41361 -5.391277,5.391277 0,0.323128 0.08298,0.947911 0.08298,0.947911 l 1.495624,10.491691 c 0,0 0.543487,-1.774209 1.657775,-1.120686 z"
       id="path13"
       sodipodi:nodetypes="cccsssscccc" />
    <circle
       style="fill:#f3f3f3;fill-opacity:0.702703;stroke-width:0.0361078"
       cx="-6.801075"
       cy="-31.910782"
       r="3.8512781"
       id="circle13"
       transform="rotate(135)" />
  </g>
  <ellipse
     style="fill:none;fill-opacity:0.0980392;stroke:#c0bfbc;stroke-width:3;stroke-dasharray:none;stroke-opacity:0.698039"
     id="ellipse11"
     cx="-50.188702"
     cy="-31.862652"
     rx="12.311298"
     ry="4.7798839"
     transform="scale(-1)" />
  <g
     id="g22"
     transform="translate(-0.52416611,-0.484165)"
     style="stroke-width:3;stroke-dasharray:none">
    <ellipse
       style="fill:none;fill-opacity:0.0980392;stroke:#c0bfbc;stroke-width:3;stroke-dasharray:none;stroke-opacity:0.698039"
       id="ellipse12"
       cx="29.402918"
       cy="-48.792248"
       rx="12.311298"
       ry="4.7798839"
       transform="rotate(105)" />
    <ellipse
       style="fill:none;fill-opacity:0.0980392;stroke:#c0bfbc;stroke-width:3;stroke-dasharray:none;stroke-opacity:0.698039"
       id="ellipse13"
       cx="48.5602"
       cy="-22.703707"
       rx="12.311298"
       ry="4.7798839"
       transform="rotate(75)" />
  </g>
  <g
     id="g21"
     transform="translate(-0.63729594,6.7225388)">
    <path
       style="fill:#e92063;fill-opacity:1;stroke-width:0.0361078"
       d="m 37.12218,23.365774 c 0,0 -2.756278,10.740657 -3.251757,10.911418 -0.807048,0.27807 -1.370754,-1.635663 -1.370754,-1.635663 -0.251204,2.948833 -0.502404,5.897667 -0.753608,8.8465 -0.01,0.13125 -0.01518,0.264098 -0.01518,0.398153 2e-6,2.977669 2.413612,5.391279 5.391279,5.391279 2.977667,0 5.391277,-2.41361 5.391277,-5.391277 0,-0.323128 -0.08298,-0.947911 -0.08298,-0.947911 L 40.934831,30.446582 c 0,0 -0.543487,1.774209 -1.657775,1.120686 z"
       id="path14"
       sodipodi:nodetypes="cccsssscccc" />
    <circle
       style="fill:#f3f3f3;fill-opacity:0.702703;stroke-width:0.0361078"
       cx="-3.3720214"
       cy="55.862755"
       r="3.8512781"
       id="circle14"
       transform="rotate(-45)" />
  </g>
  <g
     id="g12"
     transform="matrix(0.78308534,0,0,0.78308534,-27.103751,-11.063872)"
     style="fill:#c0bfbc">
    <ellipse
       style="fill:#c0bfbc;fill-opacity:0.29955;stroke:none;stroke-width:5.96354;stroke-linejoin:round;stroke-dasharray:none;stroke-opacity:1;paint-order:stroke markers fill"
       id="ellipse7"
       cx="56.953396"
       cy="-35.64006"
       rx="3.83811"
       ry="3.8238318"
       transform="matrix(0.96338834,0.26810987,0.26209077,-0.96504323,0,0)" />
    <ellipse
       style="fill:#c0bfbc;fill-opacity:1;stroke:none;stroke-width:5.96354;stroke-linejoin:round;stroke-dasharray:none;stroke-opacity:1;paint-order:stroke markers fill"
       id="ellipse8"
       cx="56.952576"
       cy="-35.640282"
       rx="3.1272776"
       ry="3.115644"
       transform="matrix(0.96338834,0.26810987,0.26209077,-0.96504323,0,0)" />
  </g>
  <g
     id="g27"
     transform="matrix(0.78308534,0,0,0.78308534,18.080266,-2.6853788)"
     style="fill:#c0bfbc">
    <ellipse
       style="fill:#c0bfbc;fill-opacity:0.29955;stroke:none;stroke-width:5.96354;stroke-linejoin:round;stroke-dasharray:none;stroke-opacity:1;paint-order:stroke markers fill"
       id="ellipse26"
       cx="56.953396"
       cy="-35.64006"
       rx="3.83811"
       ry="3.8238318"
       transform="matrix(0.96338834,0.26810987,0.26209077,-0.96504323,0,0)" />
    <ellipse
       style="fill:#c0bfbc;fill-opacity:1;stroke:none;stroke-width:5.96354;stroke-linejoin:round;stroke-dasharray:none;stroke-opacity:1;paint-order:stroke markers fill"
       id="ellipse27"
       cx="56.952576"
       cy="-35.640282"
       rx="3.1272776"
       ry="3.115644"
       transform="matrix(0.96338834,0.26810987,0.26209077,-0.96504323,0,0)" />
  </g>
</svg>
