<?xml version="1.0" encoding="UTF-8" standalone="no"?>
<svg
   width="64"
   height="64"
   viewBox="0 0 64 64"
   fill="none"
   version="1.1"
   id="svg2"
   sodipodi:docname="logo-toolkit.svg"
   inkscape:version="1.4.3 (0d15f75, 2025-12-25)"
   xmlns:inkscape="http://www.inkscape.org/namespaces/inkscape"
   xmlns:sodipodi="http://sodipodi.sourceforge.net/DTD/sodipodi-0.dtd"
   xmlns="http://www.w3.org/2000/svg"
   xmlns:svg="http://www.w3.org/2000/svg">
  <defs
     id="defs2" />
  <sodipodi:namedview
     id="namedview2"
     pagecolor="#ffffff"
     bordercolor="#000000"
     borderopacity="0.25"
     inkscape:showpageshadow="2"
     inkscape:pageopacity="0.0"
     inkscape:pagecheckerboard="0"
     inkscape:deskcolor="#d1d1d1"
     inkscape:zoom="12.626933"
     inkscape:cx="25.976221"
     inkscape:cy="38.013982"
     inkscape:window-width="1512"
     inkscape:window-height="921"
     inkscape:window-x="0"
     inkscape:window-y="33"
     inkscape:window-maximized="0"
     inkscape:current-layer="svg2"
     showgrid="false" />
  <g
     id="g17"
     transform="matrix(1.2297502,0,0,1.2297502,-7.0954417,-7.011604)"
     style="stroke-width:2.43951983;stroke-dasharray:none">
    <ellipse
       style="fill:none;fill-opacity:0.0980392;stroke:#c0bfbc;stroke-width:2.43951983;stroke-dasharray:none;stroke-opacity:0.698039"
       id="ellipse25-0"
       cx="22.586565"
       cy="-32.194771"
       rx="15.387762"
       ry="5.9743266"
       transform="rotate(90)" />
    <ellipse
       style="fill:none;fill-opacity:0.0980392;stroke:#c0bfbc;stroke-width:2.43951983;stroke-dasharray:none;stroke-opacity:0.698039"
       id="ellipse1"
       cx="41.413437"
       cy="-32.194771"
       rx="15.387762"
       ry="5.9743266"
       transform="rotate(90)" />
    <ellipse
       style="fill:none;fill-opacity:0.0980392;stroke:#c0bfbc;stroke-width:2.43951983;stroke-dasharray:none;stroke-opacity:0.698039"
       id="ellipse3-3-9"
       cx="54.667301"
       cy="-0.083261274"
       rx="15.387762"
       ry="5.9743266"
       transform="rotate(45)" />
    <ellipse
       style="fill:none;fill-opacity:0.0980392;stroke:#c0bfbc;stroke-width:2.43951983;stroke-dasharray:none;stroke-opacity:0.698039"
       id="ellipse2-9-3"
       cx="-35.842369"
       cy="-0.083261594"
       rx="15.387762"
       ry="5.9743266"
       transform="rotate(-135)" />
    <ellipse
       style="fill:none;fill-opacity:0.0980392;stroke:#c0bfbc;stroke-width:2.43951984;stroke-dasharray:none;stroke-opacity:0.698039"
       id="ellipse6"
       cx="9.412467"
       cy="45.171574"
       rx="15.387762"
       ry="5.9743266"
       transform="matrix(-0.70710678,0.70710678,0.70710678,0.70710678,0,0)" />
    <ellipse
       style="fill:none;fill-opacity:0.0980392;stroke:#c0bfbc;stroke-width:2.43951984;stroke-dasharray:none;stroke-opacity:0.698039"
       id="ellipse11"
       cx="9.412467"
       cy="-45.338097"
       rx="15.387762"
       ry="5.9743266"
       transform="matrix(0.70710678,-0.70710678,-0.70710678,-0.70710678,0,0)" />
  </g>
  <g
     id="g8"
     transform="translate(-0.88941906,28.726755)"
     style="opacity:0.849576;fill:#ffa50a;fill-opacity:1">
    <ellipse
       style="fill:#ffa50a;fill-opacity:0.29955;stroke:none;stroke-width:3;stroke-linejoin:round;stroke-dasharray:none;stroke-opacity:1;paint-order:stroke markers fill"
       id="ellipse7"
       cx="17.38196"
       cy="33.16288"
       rx="1.9409472"
       ry="1.9135387"
       transform="matrix(-0.26508582,0.96422482,0.96422482,0.26508582,0,0)" />
    <ellipse
       style="fill:#ffa50a;fill-opacity:1;stroke:none;stroke-width:3;stroke-linejoin:round;stroke-dasharray:none;stroke-opacity:1;paint-order:stroke markers fill"
       id="ellipse8"
       cx="17.38196"
       cy="33.162884"
       rx="1.5814766"
       ry="1.5591443"
       transform="matrix(-0.26508582,0.96422482,0.96422482,0.26508582,0,0)" />
  </g>
  <g
     id="g3"
     transform="rotate(45,4.7716078,51.657343)"
     style="opacity:0.849576;fill:#ffa50a;fill-opacity:1">
    <ellipse
       style="fill:#ffa50a;fill-opacity:0.29955;stroke:none;stroke-width:3;stroke-linejoin:round;stroke-dasharray:none;stroke-opacity:1;paint-order:stroke markers fill"
       id="ellipse2"
       cx="17.38196"
       cy="33.16288"
       rx="1.9409472"
       ry="1.9135387"
       transform="matrix(-0.26508582,0.96422482,0.96422482,0.26508582,0,0)" />
    <ellipse
       style="fill:#ffa50a;fill-opacity:1;stroke:none;stroke-width:3;stroke-linejoin:round;stroke-dasharray:none;stroke-opacity:1;paint-order:stroke markers fill"
       id="ellipse3"
       cx="17.38196"
       cy="33.162884"
       rx="1.5814766"
       ry="1.5591443"
       transform="matrix(-0.26508582,0.96422482,0.96422482,0.26508582,0,0)" />
  </g>
  <g
     id="g15"
     transform="matrix(-0.70710678,0.70710678,0.70710678,0.70710678,19.313612,16.051628)"
     style="opacity:0.849576;fill:#ffa50a;fill-opacity:1">
    <ellipse
       style="fill:#ffa50a;fill-opacity:0.29955;stroke:none;stroke-width:3;stroke-linejoin:round;stroke-dasharray:none;stroke-opacity:1;paint-order:stroke markers fill"
       id="ellipse14"
       cx="17.38196"
       cy="33.16288"
       rx="1.9409472"
       ry="1.9135387"
       transform="matrix(-0.26508582,0.96422482,0.96422482,0.26508582,0,0)" />
    <ellipse
       style="fill:#ffa50a;fill-opacity:1;stroke:none;stroke-width:3;stroke-linejoin:round;stroke-dasharray:none;stroke-opacity:1;paint-order:stroke markers fill"
       id="ellipse15"
       cx="17.38196"
       cy="33.162884"
       rx="1.5814766"
       ry="1.5591443"
       transform="matrix(-0.26508582,0.96422482,0.96422482,0.26508582,0,0)" />
  </g>
  <g
     id="g10"
     transform="translate(0.70721504,-19.990763)"
     style="opacity:0.849576;fill:#ffa50a;fill-opacity:1">
    <ellipse
       style="fill:#ffa50a;fill-opacity:0.29955;stroke:none;stroke-width:3;stroke-linejoin:round;stroke-dasharray:none;stroke-opacity:1;paint-order:stroke markers fill"
       id="ellipse9"
       cx="17.38196"
       cy="33.16288"
       rx="1.9409472"
       ry="1.9135387"
       transform="matrix(-0.26508582,0.96422482,0.96422482,0.26508582,0,0)" />
    <ellipse
       style="fill:#ffa50a;fill-opacity:1;stroke:none;stroke-width:3;stroke-linejoin:round;stroke-dasharray:none;stroke-opacity:1;paint-order:stroke markers fill"
       id="ellipse10"
       cx="17.38196"
       cy="33.162884"
       rx="1.5814766"
       ry="1.5591443"
       transform="matrix(-0.26508582,0.96422482,0.96422482,0.26508582,0,0)" />
  </g>
  <g
     id="g7"
     transform="rotate(45,39.931457,11.005001)"
     style="opacity:0.849576;fill:#ffa50a;fill-opacity:1">
    <ellipse
       style="fill:#ffa50a;fill-opacity:0.29955;stroke:none;stroke-width:3;stroke-linejoin:round;stroke-dasharray:none;stroke-opacity:1;paint-order:stroke markers fill"
       id="ellipse4"
       cx="17.38196"
       cy="33.16288"
       rx="1.9409472"
       ry="1.9135387"
       transform="matrix(-0.26508582,0.96422482,0.96422482,0.26508582,0,0)" />
    <ellipse
       style="fill:#ffa50a;fill-opacity:1;stroke:none;stroke-width:3;stroke-linejoin:round;stroke-dasharray:none;stroke-opacity:1;paint-order:stroke markers fill"
       id="ellipse5"
       cx="17.38196"
       cy="33.162884"
       rx="1.5814766"
       ry="1.5591443"
       transform="matrix(-0.26508582,0.96422482,0.96422482,0.26508582,0,0)" />
  </g>
  <g
     id="g13"
     transform="matrix(-0.70710678,0.70710678,0.70710678,0.70710678,48.022737,-26.523921)"
     style="opacity:0.849576;fill:#ffa50a;fill-opacity:1">
    <ellipse
       style="fill:#ffa50a;fill-opacity:0.29955;stroke:none;stroke-width:3;stroke-linejoin:round;stroke-dasharray:none;stroke-opacity:1;paint-order:stroke markers fill"
       id="ellipse12"
       cx="17.38196"
       cy="33.16288"
       rx="1.9409472"
       ry="1.9135387"
       transform="matrix(-0.26508582,0.96422482,0.96422482,0.26508582,0,0)" />
    <ellipse
       style="fill:#ffa50a;fill-opacity:1;stroke:none;stroke-width:3;stroke-linejoin:round;stroke-dasharray:none;stroke-opacity:1;paint-order:stroke markers fill"
       id="ellipse13"
       cx="17.38196"
       cy="33.162884"
       rx="1.5814766"
       ry="1.5591443"
       transform="matrix(-0.26508582,0.96422482,0.96422482,0.26508582,0,0)" />
  </g>
  <g
     id="g19"
     transform="translate(-0.533834,0.29691)">
    <g
       id="g4"
       transform="matrix(0,-3.4798385,-3.4798385,0,116.59823,276.0411)">
      <path
         style="fill:#e92063;fill-opacity:1;stroke-width:0.0103763"
         d="m 74.014653,20.358239 c 0,0 -2.742591,1.622434 -2.877972,1.556451 -0.220497,-0.107489 0.05383,-0.610907 0.05383,-0.610907 -0.650251,0.548161 -1.300501,1.096323 -1.950752,1.644484 -0.0287,0.02464 -0.05675,0.05058 -0.08399,0.07782 -0.605065,0.605066 -0.605065,1.585962 0,2.191027 0.605065,0.605065 1.585961,0.605065 2.191026,0 0.06566,-0.06566 0.175755,-0.209478 0.175755,-0.209478 l 1.82801,-2.435835 c 0,0 -0.470958,0.250084 -0.564586,-0.109137 z"
         id="path1"
         sodipodi:nodetypes="cccsssscccc" />
      <circle
         style="fill:#f3f3f3;fill-opacity:0.702703;stroke-width:0.0103763"
         cx="70.25032"
         cy="24.120285"
         r="1.1067405"
         id="circle1" />
    </g>
    <g
       id="g18"
       transform="matrix(0,3.4798385,3.4798385,0,-51.530562,-212.63492)">
      <path
         style="fill:#e92063;fill-opacity:1;stroke-width:0.0103763"
         d="m 74.014653,20.358239 c 0,0 -2.742591,1.622434 -2.877972,1.556451 -0.220497,-0.107489 0.05383,-0.610907 0.05383,-0.610907 -0.650251,0.548161 -1.300501,1.096323 -1.950752,1.644484 -0.0287,0.02464 -0.05675,0.05058 -0.08399,0.07782 -0.605065,0.605066 -0.605065,1.585962 0,2.191027 0.605065,0.605065 1.585961,0.605065 2.191026,0 0.06566,-0.06566 0.175755,-0.209478 0.175755,-0.209478 l 1.82801,-2.435835 c 0,0 -0.470958,0.250084 -0.564586,-0.109137 z"
         id="path17"
         sodipodi:nodetypes="cccsssscccc" />
      <circle
         style="fill:#f3f3f3;fill-opacity:0.702703;stroke-width:0.0103763"
         cx="70.25032"
         cy="24.120285"
         r="1.1067405"
         id="circle17" />
    </g>
  </g>
  <g
     id="g22"
     transform="rotate(90,32.118462,31.584628)">
    <g
       id="g20"
       transform="matrix(0,-3.4798385,-3.4798385,0,116.59823,276.0411)">
      <path
         style="fill:#e92063;fill-opacity:1;stroke-width:0.0103763"
         d="m 74.014653,20.358239 c 0,0 -2.742591,1.622434 -2.877972,1.556451 -0.220497,-0.107489 0.05383,-0.610907 0.05383,-0.610907 -0.650251,0.548161 -1.300501,1.096323 -1.950752,1.644484 -0.0287,0.02464 -0.05675,0.05058 -0.08399,0.07782 -0.605065,0.605066 -0.605065,1.585962 0,2.191027 0.605065,0.605065 1.585961,0.605065 2.191026,0 0.06566,-0.06566 0.175755,-0.209478 0.175755,-0.209478 l 1.82801,-2.435835 c 0,0 -0.470958,0.250084 -0.564586,-0.109137 z"
         id="path19"
         sodipodi:nodetypes="cccsssscccc" />
      <circle
         style="fill:#f3f3f3;fill-opacity:0.702703;stroke-width:0.0103763"
         cx="70.25032"
         cy="24.120285"
         r="1.1067405"
         id="circle19" />
    </g>
    <g
       id="g21"
       transform="matrix(0,3.4798385,3.4798385,0,-51.530562,-212.63492)">
      <path
         style="fill:#e92063;fill-opacity:1;stroke-width:0.0103763"
         d="m 74.014653,20.358239 c 0,0 -2.742591,1.622434 -2.877972,1.556451 -0.220497,-0.107489 0.05383,-0.610907 0.05383,-0.610907 -0.650251,0.548161 -1.300501,1.096323 -1.950752,1.644484 -0.0287,0.02464 -0.05675,0.05058 -0.08399,0.07782 -0.605065,0.605066 -0.605065,1.585962 0,2.191027 0.605065,0.605065 1.585961,0.605065 2.191026,0 0.06566,-0.06566 0.175755,-0.209478 0.175755,-0.209478 l 1.82801,-2.435835 c 0,0 -0.470958,0.250084 -0.564586,-0.109137 z"
         id="path20"
         sodipodi:nodetypes="cccsssscccc" />
      <circle
         style="fill:#f3f3f3;fill-opacity:0.702703;stroke-width:0.0103763"
         cx="70.25032"
         cy="24.120285"
         r="1.1067405"
         id="circle20" />
    </g>
  </g>
</svg>
