<?xml version="1.0" encoding="UTF-8" standalone="no"?>
<svg
   width="256"
   height="256"
   viewBox="0 0 64 64"
   fill="none"
   version="1.1"
   id="svg2"
   sodipodi:docname="logo.svg"
   inkscape:version="1.4.3 (0d15f75, 2025-12-25)"
   xml:space="preserve"
   xmlns:inkscape="http://www.inkscape.org/namespaces/inkscape"
   xmlns:sodipodi="http://sodipodi.sourceforge.net/DTD/sodipodi-0.dtd"
   xmlns="http://www.w3.org/2000/svg"
   xmlns:svg="http://www.w3.org/2000/svg"><defs
     id="defs2" /><sodipodi:namedview
     id="namedview2"
     pagecolor="#ffffff"
     bordercolor="#000000"
     borderopacity="0.25"
     inkscape:showpageshadow="2"
     inkscape:pageopacity="0.0"
     inkscape:pagecheckerboard="0"
     inkscape:deskcolor="#d1d1d1"
     inkscape:zoom="7.0201032"
     inkscape:cx="69.158527"
     inkscape:cy="87.391877"
     inkscape:window-width="1920"
     inkscape:window-height="1022"
     inkscape:window-x="0"
     inkscape:window-y="369"
     inkscape:window-maximized="1"
     inkscape:current-layer="g1" /><g
     id="g17"><g
       id="g1"
       transform="matrix(4.0000082,0,0,4.0000082,-249.00051,-70.402338)"><g
         id="g2"
         transform="matrix(0.25535277,0,0,0.25535277,62.078695,17.40181)"
         style="stroke-width:2.93711;stroke-dasharray:none;stroke:#ffffff;fill:none"><ellipse
           style="fill:none;fill-opacity:0.0980392;stroke:#ffffff;stroke-width:2.93711;stroke-dasharray:none;stroke-opacity:0.698039;opacity:0.8"
           id="ellipse2"
           cx="-32.107433"
           cy="31.997715"
           rx="28.296276"
           ry="10.98608"
           transform="rotate(-90)" /><ellipse
           style="fill:none;fill-opacity:0.0980392;stroke:#ffffff;stroke-width:2.93711;stroke-dasharray:none;stroke-opacity:0.698039;opacity:0.8"
           id="ellipse11"
           cx="-35.609558"
           cy="-7.1701312"
           rx="28.296276"
           ry="10.98608"
           transform="rotate(-150)" /><ellipse
           style="fill:none;fill-opacity:0.0980392;stroke:#ffffff;stroke-width:2.93711;stroke-dasharray:none;stroke-opacity:0.698039;opacity:0.8"
           id="ellipse12"
           cx="19.816069"
           cy="39.170128"
           rx="28.296276"
           ry="10.98608"
           transform="rotate(-30)" /></g><g
         id="g10"
         transform="matrix(0.25,0,0,0.25,67.131837,13.058119)"
         style="opacity:0.849576;fill:#f6f5f4;fill-opacity:1"><ellipse
           style="fill:#f6f5f4;fill-opacity:0.29955;stroke:none;stroke-width:3;stroke-linejoin:round;stroke-dasharray:none;stroke-opacity:1;paint-order:stroke markers fill"
           id="ellipse9"
           cx="17.38196"
           cy="33.16288"
           rx="1.9409472"
           ry="1.9135387"
           transform="matrix(-0.26508582,0.96422482,0.96422482,0.26508582,0,0)" /><ellipse
           style="fill:#f6f5f4;fill-opacity:1;stroke:none;stroke-width:3;stroke-linejoin:round;stroke-dasharray:none;stroke-opacity:1;paint-order:stroke markers fill"
           id="ellipse10"
           cx="17.38196"
           cy="33.162884"
           rx="1.5814766"
           ry="1.5591443"
           transform="matrix(-0.26508582,0.96422482,0.96422482,0.26508582,0,0)" /></g><g
         id="g3"
         transform="matrix(0.25,0,0,0.25,57.234996,16.861889)"
         style="opacity:0.849576;fill:#f6f5f4;fill-opacity:1"><ellipse
           style="fill:#f6f5f4;fill-opacity:0.29955;stroke:none;stroke-width:3;stroke-linejoin:round;stroke-dasharray:none;stroke-opacity:1;paint-order:stroke markers fill"
           id="ellipse1"
           cx="17.38196"
           cy="33.16288"
           rx="1.9409472"
           ry="1.9135387"
           transform="matrix(-0.26508582,0.96422482,0.96422482,0.26508582,0,0)" /><ellipse
           style="fill:#f6f5f4;fill-opacity:1;stroke:none;stroke-width:3;stroke-linejoin:round;stroke-dasharray:none;stroke-opacity:1;paint-order:stroke markers fill"
           id="ellipse3"
           cx="17.38196"
           cy="33.162884"
           rx="1.5814766"
           ry="1.5591443"
           transform="matrix(-0.26508582,0.96422482,0.96422482,0.26508582,0,0)" /></g><g
         id="g5"
         transform="matrix(0.25,0,0,0.25,61.353331,24.148509)"
         style="opacity:0.849576;fill:#f6f5f4;fill-opacity:1"><ellipse
           style="fill:#f6f5f4;fill-opacity:0.29955;stroke:none;stroke-width:3;stroke-linejoin:round;stroke-dasharray:none;stroke-opacity:1;paint-order:stroke markers fill"
           id="ellipse4"
           cx="17.38196"
           cy="33.16288"
           rx="1.9409472"
           ry="1.9135387"
           transform="matrix(-0.26508582,0.96422482,0.96422482,0.26508582,0,0)" /><ellipse
           style="fill:#f6f5f4;fill-opacity:1;stroke:none;stroke-width:3;stroke-linejoin:round;stroke-dasharray:none;stroke-opacity:1;paint-order:stroke markers fill"
           id="ellipse5"
           cx="17.38196"
           cy="33.162884"
           rx="1.5814766"
           ry="1.5591443"
           transform="matrix(-0.26508582,0.96422482,0.96422482,0.26508582,0,0)" /></g><g
         id="g4"><path
           style="fill:#e92063;fill-opacity:1;stroke-width:0.0103763"
           d="m 74.014653,20.358239 c 0,0 -2.742591,1.622434 -2.877972,1.556451 -0.220497,-0.107489 0.05383,-0.610907 0.05383,-0.610907 -0.650251,0.548161 -1.300501,1.096323 -1.950752,1.644484 -0.0287,0.02464 -0.05675,0.05058 -0.08399,0.07782 -0.605065,0.605066 -0.605065,1.585962 0,2.191027 0.605065,0.605065 1.585961,0.605065 2.191026,0 0.06566,-0.06566 0.175755,-0.209478 0.175755,-0.209478 l 1.82801,-2.435835 c 0,0 -0.470958,0.250084 -0.564586,-0.109137 z"
           id="path1"
           sodipodi:nodetypes="cccsssscccc" /><circle
           style="fill:#f3f3f3;stroke-width:0.0103763;fill-opacity:0.7027027"
           cx="70.25032"
           cy="24.120285"
           r="1.1067405"
           id="circle1" /></g></g></g></svg>
