<?xml version="1.0" encoding="UTF-8" standalone="no"?>
<!-- Created with Inkscape (http://www.inkscape.org/) -->

<svg
   height="3.6708722mm"
   id="svg1"
   version="1.1"
   viewBox="0 0 4.4030967 3.6708722"
   width="4.4030967mm"
   xml:space="preserve"
   xmlns="http://www.w3.org/2000/svg"
   xmlns:svg="http://www.w3.org/2000/svg"><defs
     id="defs1" /><g
     id="layer4"
     transform="translate(-25.691898,-28.305446)"><path
       d="m 26.108213,30.060905 c 0.110301,-0.08716 0.160232,-0.209482 0.234902,-0.313883 0.07625,-0.106897 0.14094,-0.22083 0.207666,-0.333856 0.06015,-0.101903 0.149112,-0.18497 0.240348,-0.261908 0.064,-0.05356 0.136174,-0.09668 0.203807,-0.145482 0.06355,-0.04584 0.138672,-0.0758 0.209029,-0.111889 0.03132,-0.01589 0.06424,-0.02859 0.0951,-0.04494 0.01361,-0.0073 0.0097,-0.02382 0.007,-0.03586 -0.0034,-0.01566 -0.01611,-0.01816 -0.02972,-0.01249 -0.117337,0.04767 -0.246022,0.06673 -0.349968,0.147524 -0.06831,0.05311 -0.143892,0.09668 -0.209936,0.153423 -0.130274,0.112118 -0.257371,0.227639 -0.384694,0.343162 -0.0454,0.04085 -0.09328,0.07967 -0.137991,0.121875 -0.07853,0.07422 -0.135494,0.162502 -0.183836,0.258051 -0.01293,0.02519 -0.02269,0.05402 -0.04767,0.0724 -0.01044,0.0075 -0.01861,0.0202 -0.03313,0.01567 -0.01543,-0.0046 -0.0118,-0.01975 -0.01521,-0.03155 -0.02655,-0.09215 -0.02202,-0.186559 -0.01657,-0.279839 0.0048,-0.08171 -0.02837,-0.149791 -0.06127,-0.219242 -0.01044,-0.02224 -0.03178,-0.02951 -0.04993,-0.04245 -0.03018,-0.02156 -0.06468,-0.03903 -0.08215,-0.07694 -0.02224,-0.04858 -0.01567,-0.07285 0.0354,-0.09328 0.05901,-0.02382 0.117112,-0.0506 0.177937,-0.06876 0.09872,-0.02951 0.177934,-0.09169 0.248973,-0.159097 0.09033,-0.08579 0.197907,-0.140942 0.300945,-0.205852 0.174303,-0.10962 0.369034,-0.177482 0.548558,-0.275073 0.08125,-0.04426 0.161595,-0.08964 0.248293,-0.123011 0.04812,-0.01839 0.09554,-0.03449 0.148657,-0.03178 0.0522,0.0027 0.104627,0.0024 0.156828,0 0.06536,-0.0032 0.127095,0.01429 0.188601,0.03018 0.153424,0.03994 0.305032,0.08625 0.458909,0.124372 0.05969,0.01475 0.105309,0.04018 0.136856,0.09328 0.0097,0.01633 0.02565,0.02951 0.03927,0.04357 0.01339,0.01362 0.0118,0.02587 0.0034,0.04289 -0.0218,0.04336 -0.04153,0.08625 -0.07921,0.119834 -0.07602,0.06809 -0.114387,0.153423 -0.108712,0.257144 0.0023,0.04244 0.0027,0.08533 -4.68e-4,0.12755 -0.0027,0.03427 0.0109,0.0631 0.02337,0.09215 0.02019,0.04652 0.0504,0.08398 0.105537,0.08738 0.03949,0.0024 0.01407,0.01952 0.01249,0.03586 -0.0055,0.05742 -0.02996,0.11257 -0.02134,0.171807 0.0057,0.03949 -0.03042,0.07149 -0.0218,0.112571 0.0034,0.01612 0.0032,0.03178 0.02541,0.03427 0.09442,0.0097 0.107578,0.09056 0.109849,0.155011 0.0032,0.08761 0.03222,0.172035 0.02473,0.260094 -2.27e-4,0.0032 -6.62e-4,0.0067 2.28e-4,0.0097 0.0286,0.103947 0.0413,0.211978 0.08125,0.312975 0.0093,0.0236 0.0286,0.0447 0.03268,0.069 0.0079,0.04494 0.03676,0.06854 0.07443,0.08103 0.08285,0.027 0.147976,0.0774 0.201766,0.143437 0.02247,0.02747 0.03428,0.01861 0.0606,0.0016 0.07081,-0.04562 0.152969,-0.06127 0.235808,-0.06946 0.02269,-0.0023 0.04584,0 0.06876,-4.68e-4 0.06242,-0.0015 0.102812,-0.04222 0.105762,-0.107578 8.81e-4,-0.01952 0.0014,-0.03949 -4.68e-4,-0.05879 -0.003,-0.0286 0.0077,-0.04925 0.02814,-0.069 0.07218,-0.07059 0.107804,-0.156829 0.111663,-0.258279 0.0016,-0.03631 0.01929,-0.07104 2.27e-4,-0.109166 -0.0079,-0.01633 0.0034,-0.03609 0.01249,-0.05448 0.01067,-0.02247 0.02088,-0.04584 0.0277,-0.07104 0.02496,-0.09146 0.0027,-0.170672 -0.07716,-0.212886 -0.05696,-0.03018 -0.106671,-0.06423 -0.148431,-0.114387 -0.03177,-0.03813 -0.0749,-0.04743 -0.130273,-0.03746 -0.133451,0.02429 -0.204263,0.115523 -0.259868,0.223327 -0.05537,0.107351 0.01657,0.274393 0.129365,0.313202 0.05651,0.01951 0.142305,-0.01249 0.176348,-0.07081 0.01385,-0.02382 -0.0039,-0.04743 -0.02541,-0.05969 -0.03087,-0.01725 -0.06378,-0.02951 -0.08828,-0.05742 -0.03563,-0.0413 -0.04131,-0.05561 -0.0097,-0.102131 0.04244,-0.06219 0.09079,-0.11938 0.177481,-0.116656 0.03018,8.8e-4 0.04722,0.01385 0.05696,0.04245 0.0286,0.08398 0.05719,0.168175 0.0892,0.251015 0.01475,0.03791 0.0079,0.06424 -0.01633,0.09669 -0.07172,0.09624 -0.158644,0.178843 -0.233539,0.271896 -0.02633,0.03268 -0.05152,0.06628 -0.07943,0.09759 -0.01475,0.01657 -0.0143,0.03473 -0.01633,0.05424 -0.0083,0.07989 -0.06037,0.110756 -0.134587,0.08012 -0.07081,-0.02906 -0.110755,-0.08964 -0.136174,-0.155013 -0.01633,-0.04199 -0.03631,-0.069 -0.07467,-0.09079 -0.08443,-0.04812 -0.138671,-0.12074 -0.164317,-0.21629 -0.03336,-0.125281 -0.02178,-0.248745 0.01203,-0.37085 0.0095,-0.03382 0.01271,-0.0606 -0.0079,-0.09079 -0.03268,-0.04788 -0.02814,-0.09646 0.0046,-0.143664 0.03314,-0.04788 0.05084,-0.09759 0.05765,-0.15887 0.0057,-0.05289 0.03791,-0.108259 0.07716,-0.152289 0.0261,-0.02928 0.04426,-0.0606 0.05628,-0.09941 0.0463,-0.150701 0.204262,-0.226278 0.32977,-0.237853 0.06491,-0.0062 0.130728,-0.0012 0.196091,-0.0014 0.10758,-4.68e-4 0.19564,0.04108 0.254194,0.131409 0.0177,0.02746 0.03314,0.04176 0.06514,0.04812 0.02065,0.0043 0.0429,0.01226 0.0631,0.02042 0.1305,0.05378 0.225142,0.140713 0.269171,0.280973 0.02201,0.07012 0.03654,0.141623 0.05424,0.212207 0.01703,0.06832 0.03836,0.134813 0.06445,0.199496 0.03382,0.08398 0.05879,0.169084 0.05651,0.260774 -0.0016,0.06514 -4.68e-4,0.130729 -0.0012,0.196092 -8.8e-4,0.09963 -0.01452,0.197906 -0.03767,0.294819 -0.0081,0.03427 -0.0027,0.06946 -0.01203,0.105308 -0.03018,0.11779 -0.106215,0.210163 -0.161592,0.313656 -0.01975,0.03654 -0.04357,0.07081 -0.06536,0.106443 -0.07649,0.125054 -0.173851,0.232632 -0.27757,0.335217 -0.05992,0.05945 -0.115295,0.12165 -0.151836,0.199042 -0.01315,0.0277 -0.0329,0.02973 -0.04743,0.0027 -0.03858,-0.07104 -0.09986,-0.117565 -0.163863,-0.161594 -0.0261,-0.01793 -0.05266,-0.03835 -0.08783,-0.03473 -0.05039,0.0055 -0.07127,-0.02633 -0.09669,-0.064 -0.03563,-0.05288 -0.03745,-0.108486 -0.03609,-0.166814 2.27e-4,-0.0109 -0.0043,-0.01906 -0.01408,-0.02178 -0.0097,-0.0024 -0.02157,0.0012 -0.02316,0.01134 -0.0032,0.02247 -0.02429,0.03676 -0.02179,0.0631 0.0062,0.06423 0.01589,0.128004 0.05402,0.180204 0.02337,0.032 0.0429,0.05901 0.04788,0.101678 0.0046,0.03767 0.05424,0.07467 0.04245,0.108712 -0.01,0.0286 -0.06241,0.04018 -0.09079,0.06514 -0.03018,0.02655 -0.03994,0.06491 -0.03473,0.105536 0.0067,0.0522 -0.0077,0.08148 -0.06718,0.09486 -0.05424,0.01249 -0.103947,0.04607 -0.154785,0.07172 -0.100543,0.05085 -0.206305,0.06628 -0.318196,0.05969 -0.0951,-0.006 -0.09736,-0.0027 -0.06536,-0.09442 0.01657,-0.04767 0.01567,-0.08851 0.003,-0.138898 -0.02042,-0.08033 -0.03087,-0.164772 -0.02452,-0.249654 6.62e-4,-0.0081 -0.0039,-0.02157 -0.01021,-0.02496 -0.01271,-0.0068 -0.0261,4.68e-4 -0.0329,0.01225 -0.02541,0.04403 -0.05879,0.08556 -0.05493,0.140714 0.0021,0.03018 -0.01225,0.05606 -0.01725,0.08398 -0.007,0.03949 -0.02541,0.05719 -0.06468,0.05583 -0.05765,-0.0016 -0.106216,0.01861 -0.147296,0.05945 -0.04221,0.04199 -0.08669,0.04018 -0.139125,0.01249 -0.119152,-0.06241 -0.12233,-0.06218 -0.02292,-0.159552 0.08352,-0.08171 0.121877,-0.178388 0.118018,-0.29391 -0.0014,-0.04244 -0.0021,-0.0851 2.28e-4,-0.127323 0.003,-0.04948 -0.0064,-0.096 -0.02157,-0.142303 -0.03245,-0.09872 -0.01633,-0.190191 0.04652,-0.268719 0.0062,-0.0077 0.01361,-0.0143 0.01998,-0.02179 0.01748,-0.01998 0.0177,-0.03973 0.0016,-0.06151 -0.02247,-0.03109 -0.0454,-0.0019 -0.05697,0.006 -0.04335,0.02951 -0.08285,0.06536 -0.06991,0.127777 0.0012,0.0064 -2.27e-4,0.01315 6.63e-4,0.01951 0.01203,0.09646 -0.0097,0.185879 -0.06127,0.267129 -0.02724,0.04267 -0.03473,0.08737 -0.03927,0.136856 -0.0093,0.100088 -0.04902,0.190645 -0.110301,0.270761 -0.01611,0.02111 -0.03994,0.0261 -0.05992,0.0095 -0.06967,-0.05787 -0.140033,-0.0413 -0.203582,0.0039 -0.04221,0.03018 -0.0749,0.02496 -0.115522,0.0046 -0.02519,-0.01272 -0.02247,-0.03064 -0.01475,-0.04767 0.0062,-0.0143 0.01975,-0.02587 0.03178,-0.03676 0.03065,-0.02747 0.05038,-0.05879 0.04403,-0.102131 -0.0052,-0.03473 0.0118,-0.06378 0.03042,-0.08943 0.06582,-0.08964 0.09146,-0.195184 0.124826,-0.297997 0.0236,-0.07308 0.03609,-0.147295 0.04357,-0.224688 0.0095,-0.09918 0.0236,-0.2029 0.08782,-0.288237 0.0052,-0.0068 0.0057,-0.01816 0.0064,-0.02747 4.67e-4,-0.0057 -0.0021,-0.01293 -0.0057,-0.01724 -0.0016,-0.0019 -0.01067,6.63e-4 -0.01475,0.0034 -0.09237,0.06422 -0.120968,0.162274 -0.13572,0.265312 -0.01452,0.104174 -0.03721,0.206305 -0.06718,0.306621 -0.01839,0.06083 -0.04607,0.117565 -0.08285,0.171807 -0.03018,0.04448 -0.05674,0.07625 -0.114159,0.06876 -0.02292,-0.003 -0.04267,0.0052 -0.06218,0.02088 -0.04516,0.03586 -0.09692,0.06242 -0.140715,0.101225 -0.05106,0.04516 -0.07853,0.04335 -0.131636,-0.0057 -0.05765,-0.05312 -0.112345,-0.109621 -0.167267,-0.16568 -0.02589,-0.02679 -0.02429,-0.04289 0.0055,-0.06197 0.05379,-0.03449 0.110303,-0.06423 0.163185,-0.100996 0.104399,-0.07286 0.160686,-0.180886 0.21924,-0.287556 0.007,-0.01294 0.0043,-0.03155 0.0052,-0.04767 0.0034,-0.06218 0.02382,-0.118246 0.05901,-0.169538 0.05424,-0.0792 0.104855,-0.160458 0.149566,-0.245795 0.04153,-0.07989 0.09418,-0.153197 0.157962,-0.217879 0.01839,-0.01861 0.03745,-0.03654 0.0547,-0.05606 0.01657,-0.01929 0.01906,-0.04948 0.0057,-0.06333 -0.01657,-0.01702 -0.03904,0.0057 -0.0547,0.01748 -0.03427,0.02541 -0.05356,0.064 -0.07989,0.09646 -0.08079,0.100316 -0.152741,0.205624 -0.214701,0.318649 -0.03994,0.07308 -0.08761,0.141396 -0.146614,0.20222 -0.08375,0.08602 -0.180205,0.16046 -0.246477,0.263044 -0.0081,0.01271 -0.0236,0.02338 -0.03791,0.0286 -0.0143,0.0052 -0.03654,0.0057 -0.037,-0.01702 -0.0016,-0.06287 -0.04403,-0.06197 -0.08851,-0.06197 -0.05176,2.28e-4 -0.104401,-0.0043 -0.148206,0.03132 -0.02088,0.0168 -0.0354,0.0074 -0.04993,-0.0079 -0.0046,-0.0048 -0.009,-0.0095 -0.01361,-0.01408 -0.08806,-0.08761 -0.08488,-0.09079 0.01271,-0.168629 0.05833,-0.04653 0.110983,-0.10168 0.159553,-0.158872 0.09418,-0.110529 0.157054,-0.238987 0.209028,-0.374707 0.03177,-0.0833 0.07989,-0.160005 0.140487,-0.229001 0.04039,-0.04584 0.07897,-0.09351 0.121195,-0.138217 0.04902,-0.0522 0.102359,-0.09895 0.164772,-0.134133 0.02927,-0.01657 0.04993,-0.04109 0.07285,-0.064 0.0079,-0.0079 0.0075,-0.01951 0.0012,-0.02565 -0.006,-0.0057 -0.01816,-0.0095 -0.0261,-0.0077 -0.03155,0.0073 -0.05992,0.02134 -0.08351,0.04448 -0.03881,0.03767 -0.07989,0.0724 -0.116201,0.113025 -0.06332,0.07036 -0.130729,0.137309 -0.199497,0.202447 -0.07127,0.06718 -0.136402,0.137764 -0.171127,0.231271 -0.01045,0.0286 -0.03018,0.04948 -0.05085,0.07012 -0.08102,0.0808 -0.161821,0.161594 -0.242618,0.242618 -0.037,0.03699 -0.08239,0.06151 -0.127778,0.08556 -0.03404,0.01816 -0.05537,0.01134 -0.07331,-0.02042 -0.02951,-0.05266 -0.04494,-0.111891 -0.0783,-0.163638 -0.01521,-0.02315 -0.0073,-0.05765 0.02224,-0.07739 0.02134,-0.0143 0.0438,-0.02724 0.06332,-0.0438 0.03949,-0.03359 0.04109,-0.07013 0.0067,-0.109168 -0.01089,-0.01225 -0.02247,-0.02406 -0.0354,-0.03403 -0.01,-0.0075 -0.02224,-0.01203 -0.04312,-0.02292 m 2.350955,0.883848 c -0.02633,0.02928 -0.05651,0.04766 -0.06264,0.07218 -0.01521,0.06173 -0.0631,0.102359 -0.08942,0.156148 -0.0097,0.01997 -0.02269,0.03904 -0.03064,0.05969 -0.01293,0.03427 -0.01657,0.06922 0.0086,0.100316 0.01203,0.01498 0.02814,0.01974 0.03994,0.0021 0.04085,-0.06151 0.07331,-0.129821 0.07853,-0.201767 0.0036,-0.04812 0.01816,-0.08533 0.04153,-0.123691 0.0079,-0.01315 0.02224,-0.02452 0.01408,-0.06491"
       id="path1-4" 
       style="clip-rule:evenodd;display:inline;fill:#5277a4;fill-opacity:1;fill-rule:nonzero;stroke-width:0.226959;stroke-linejoin:round;stroke-miterlimit:2"/></g></svg>
